M48
; DRILL file {KiCad (5.99.0-8996-g10442b98df)} date 04/19/21 08:50:08
; FORMAT={-:-/ absolute / inch / decimal}
; #@! TF.CreationDate,2021-04-19T08:50:08+01:00
; #@! TF.GenerationSoftware,Kicad,Pcbnew,(5.99.0-8996-g10442b98df)
FMAT,2
INCH
T1C0.0120
T2C0.0157
T3C0.0256
T4C0.0394
T5C0.2800
%
G90
G05
T1
X6.3287Y-4.1919
X6.3888Y-4.1112
X6.4636Y-4.372
X6.5039Y-4.5827
X6.6703Y-4.687
X6.7412Y-4.7016
X6.7589Y-4.2618
X6.7766Y-4.7018
X6.7884Y-4.0689
X6.8622Y-4.4449
X6.8898Y-4.4843
T2
X6.0256Y-4.6457
X6.1063Y-4.1516
X6.1447Y-4.062
X6.2195Y-4.2402
X6.2421Y-4.623
X6.2598Y-4.5187
X6.2677Y-4.4577
X6.3356Y-4.0089
X6.4341Y-4.2362
X6.4528Y-4.001
X6.4911Y-4.6742
X6.5157Y-4.2726
X6.6053Y-4.1309
X6.6373Y-4.2801
X6.6447Y-4.2313
X6.6713Y-4.3287
X6.7215Y-4.3287
X7.0157Y-4.4813
X7.0226Y-4.247
X7.0482Y-4.6417
X7.2441Y-4.5817
T3
X6.2083Y-4.3179
X6.2583Y-4.3179
X6.3083Y-4.3179
X6.3583Y-4.3179
T4
X6.8711Y-4.0837
X6.8711Y-4.1837
X6.8711Y-4.2837
X6.9711Y-4.0837
X6.9711Y-4.1837
X6.9711Y-4.2837
T5
X5.9666Y-4.3169
X7.2343Y-4.3169
T0
M30
