%TF.GenerationSoftware,KiCad,Pcbnew,(5.99.0-8996-g10442b98df)*%
%TF.CreationDate,2021-04-19T08:50:07+01:00*%
%TF.ProjectId,CANduino,43414e64-7569-46e6-9f2e-6b696361645f,rev?*%
%TF.SameCoordinates,Original*%
%TF.FileFunction,Copper,L1,Top*%
%TF.FilePolarity,Positive*%
%FSLAX46Y46*%
G04 Gerber Fmt 4.6, Leading zero omitted, Abs format (unit mm)*
G04 Created by KiCad (PCBNEW (5.99.0-8996-g10442b98df)) date 2021-04-19 08:50:07*
%MOMM*%
%LPD*%
G01*
G04 APERTURE LIST*
G04 Aperture macros list*
%AMRoundRect*
0 Rectangle with rounded corners*
0 $1 Rounding radius*
0 $2 $3 $4 $5 $6 $7 $8 $9 X,Y pos of 4 corners*
0 Add a 4 corners polygon primitive as box body*
4,1,4,$2,$3,$4,$5,$6,$7,$8,$9,$2,$3,0*
0 Add four circle primitives for the rounded corners*
1,1,$1+$1,$2,$3*
1,1,$1+$1,$4,$5*
1,1,$1+$1,$6,$7*
1,1,$1+$1,$8,$9*
0 Add four rect primitives between the rounded corners*
20,1,$1+$1,$2,$3,$4,$5,0*
20,1,$1+$1,$4,$5,$6,$7,0*
20,1,$1+$1,$6,$7,$8,$9,0*
20,1,$1+$1,$8,$9,$2,$3,0*%
G04 Aperture macros list end*
%TA.AperFunction,SMDPad,CuDef*%
%ADD10R,1.300000X1.100000*%
%TD*%
%TA.AperFunction,SMDPad,CuDef*%
%ADD11R,0.640000X0.420000*%
%TD*%
%TA.AperFunction,SMDPad,CuDef*%
%ADD12RoundRect,0.237500X-0.250000X-0.237500X0.250000X-0.237500X0.250000X0.237500X-0.250000X0.237500X0*%
%TD*%
%TA.AperFunction,ComponentPad*%
%ADD13O,1.700000X1.700000*%
%TD*%
%TA.AperFunction,ComponentPad*%
%ADD14R,1.700000X1.700000*%
%TD*%
%TA.AperFunction,SMDPad,CuDef*%
%ADD15R,4.600000X4.600000*%
%TD*%
%TA.AperFunction,SMDPad,CuDef*%
%ADD16R,1.050000X0.350000*%
%TD*%
%TA.AperFunction,SMDPad,CuDef*%
%ADD17R,0.350000X1.050000*%
%TD*%
%TA.AperFunction,SMDPad,CuDef*%
%ADD18RoundRect,0.237500X-0.300000X-0.237500X0.300000X-0.237500X0.300000X0.237500X-0.300000X0.237500X0*%
%TD*%
%TA.AperFunction,SMDPad,CuDef*%
%ADD19RoundRect,0.237500X0.237500X-0.250000X0.237500X0.250000X-0.237500X0.250000X-0.237500X-0.250000X0*%
%TD*%
%TA.AperFunction,ComponentPad*%
%ADD20C,8.382000*%
%TD*%
%TA.AperFunction,ComponentPad*%
%ADD21R,1.000000X1.000000*%
%TD*%
%TA.AperFunction,ComponentPad*%
%ADD22O,1.000000X1.000000*%
%TD*%
%TA.AperFunction,SMDPad,CuDef*%
%ADD23R,1.550000X0.700000*%
%TD*%
%TA.AperFunction,SMDPad,CuDef*%
%ADD24R,1.900000X0.800000*%
%TD*%
%TA.AperFunction,SMDPad,CuDef*%
%ADD25RoundRect,0.237500X0.237500X-0.300000X0.237500X0.300000X-0.237500X0.300000X-0.237500X-0.300000X0*%
%TD*%
%TA.AperFunction,SMDPad,CuDef*%
%ADD26RoundRect,0.237500X0.300000X0.237500X-0.300000X0.237500X-0.300000X-0.237500X0.300000X-0.237500X0*%
%TD*%
%TA.AperFunction,SMDPad,CuDef*%
%ADD27R,1.475000X0.450000*%
%TD*%
%TA.AperFunction,SMDPad,CuDef*%
%ADD28R,2.200000X1.550000*%
%TD*%
%TA.AperFunction,ViaPad*%
%ADD29C,0.508000*%
%TD*%
%TA.AperFunction,ViaPad*%
%ADD30C,0.800000*%
%TD*%
%TA.AperFunction,Conductor*%
%ADD31C,0.250000*%
%TD*%
G04 APERTURE END LIST*
D10*
%TO.P,Y1,4,GND_2*%
%TO.N,GND*%
X175750002Y-115149996D03*
%TO.P,Y1,3,OUT/IN*%
%TO.N,/mcu/OSC_2*%
X178050002Y-115149996D03*
%TO.P,Y1,2,GND_1*%
%TO.N,GND*%
X178050002Y-117049996D03*
%TO.P,Y1,1,IN/OUT*%
%TO.N,/mcu/OSC_1*%
X175750002Y-117049996D03*
%TD*%
D11*
%TO.P,Z1,2*%
%TO.N,/mcu/RESET*%
X175000000Y-112875000D03*
%TO.P,Z1,1*%
%TO.N,+5V*%
X176500000Y-112875000D03*
%TD*%
D12*
%TO.P,R4,2*%
%TO.N,+5V*%
X176712500Y-111425000D03*
%TO.P,R4,1*%
%TO.N,/mcu/RESET*%
X174887500Y-111425000D03*
%TD*%
D13*
%TO.P,J1,6,Pin_6*%
%TO.N,GND*%
X177065000Y-108805000D03*
%TO.P,J1,5,Pin_5*%
%TO.N,/mcu/RESET*%
X174525000Y-108805000D03*
%TO.P,J1,4,Pin_4*%
%TO.N,/mcu/ICSP_MOSI*%
X177065000Y-106265000D03*
%TO.P,J1,3,Pin_3*%
%TO.N,/mcu/ICSP_SCK*%
X174525000Y-106265000D03*
%TO.P,J1,2,Pin_2*%
%TO.N,5V_USB*%
X177065000Y-103725000D03*
D14*
%TO.P,J1,1,Pin_1*%
%TO.N,/mcu/ICSP_MISO*%
X174525000Y-103725000D03*
%TD*%
D15*
%TO.P,H1,33,TER*%
%TO.N,unconnected-(H1-Pad33)*%
X169799991Y-114850012D03*
D16*
%TO.P,H1,32,PD1*%
%TO.N,unconnected-(H1-Pad32)*%
X166449991Y-117125012D03*
%TO.P,H1,31,PE0*%
%TO.N,/mcu/RESET*%
X166449991Y-116475012D03*
%TO.P,H1,30,PC0*%
%TO.N,unconnected-(H1-Pad30)*%
X166449991Y-115825012D03*
%TO.P,H1,29,PD0*%
%TO.N,unconnected-(H1-Pad29)*%
X166449991Y-115175012D03*
%TO.P,H1,28,PB7*%
%TO.N,unconnected-(H1-Pad28)*%
X166449991Y-114525012D03*
%TO.P,H1,27,PB6*%
%TO.N,unconnected-(H1-Pad27)*%
X166449991Y-113875012D03*
%TO.P,H1,26,PB5*%
%TO.N,unconnected-(H1-Pad26)*%
X166449991Y-113225012D03*
%TO.P,H1,25,PC7*%
%TO.N,unconnected-(H1-Pad25)*%
X166449991Y-112575012D03*
D17*
%TO.P,H1,24,PB4*%
%TO.N,unconnected-(H1-Pad24)*%
X167524991Y-111500012D03*
%TO.P,H1,23,PB3*%
%TO.N,unconnected-(H1-Pad23)*%
X168174991Y-111500012D03*
%TO.P,H1,22,PC6*%
%TO.N,unconnected-(H1-Pad22)*%
X168824991Y-111500012D03*
%TO.P,H1,21,AREF*%
%TO.N,unconnected-(H1-Pad21)*%
X169474991Y-111500012D03*
%TO.P,H1,20,AGND*%
%TO.N,GND*%
X170124991Y-111500012D03*
%TO.P,H1,19,AVCC*%
%TO.N,+5V*%
X170774991Y-111500012D03*
%TO.P,H1,18,PC5*%
%TO.N,unconnected-(H1-Pad18)*%
X171424991Y-111500012D03*
%TO.P,H1,17,PC4*%
%TO.N,unconnected-(H1-Pad17)*%
X172074991Y-111500012D03*
D16*
%TO.P,H1,16,PB2*%
%TO.N,unconnected-(H1-Pad16)*%
X173149991Y-112575012D03*
%TO.P,H1,15,PD7*%
%TO.N,unconnected-(H1-Pad15)*%
X173149991Y-113225012D03*
%TO.P,H1,14,PD6*%
%TO.N,unconnected-(H1-Pad14)*%
X173149991Y-113875012D03*
%TO.P,H1,13,PD5*%
%TO.N,unconnected-(H1-Pad13)*%
X173149991Y-114525012D03*
%TO.P,H1,12,PD4*%
%TO.N,/mcu/ICSP_SCK*%
X173149991Y-115175012D03*
%TO.P,H1,11,PE2*%
%TO.N,/mcu/OSC_2*%
X173149991Y-115825012D03*
%TO.P,H1,10,PE1*%
%TO.N,/mcu/OSC_1*%
X173149991Y-116475012D03*
%TO.P,H1,9,PB1*%
%TO.N,unconnected-(H1-Pad9)*%
X173149991Y-117125012D03*
D17*
%TO.P,H1,8,PB0*%
%TO.N,unconnected-(H1-Pad8)*%
X172074991Y-118200012D03*
%TO.P,H1,7,PC3*%
%TO.N,/mcu/RXCAN*%
X171424991Y-118200012D03*
%TO.P,H1,6,PC2*%
%TO.N,/mcu/TXCAN*%
X170774991Y-118200012D03*
%TO.P,H1,5,GND*%
%TO.N,GND*%
X170124991Y-118200012D03*
%TO.P,H1,4,VCC*%
%TO.N,+5V*%
X169474991Y-118200012D03*
%TO.P,H1,3,PC1*%
%TO.N,unconnected-(H1-Pad3)*%
X168824991Y-118200012D03*
%TO.P,H1,2,PD3*%
%TO.N,/mcu/ICSP_MOSI*%
X168174991Y-118200012D03*
%TO.P,H1,1,PD2*%
%TO.N,/mcu/ICSP_MISO*%
X167524991Y-118200012D03*
%TD*%
D18*
%TO.P,C11,2*%
%TO.N,GND*%
X182362500Y-116250000D03*
%TO.P,C11,1*%
%TO.N,/mcu/OSC_2*%
X180637500Y-116250000D03*
%TD*%
%TO.P,C7,2*%
%TO.N,GND*%
X182362500Y-117850000D03*
%TO.P,C7,1*%
%TO.N,/mcu/OSC_1*%
X180637500Y-117850000D03*
%TD*%
D19*
%TO.P,R1,1*%
%TO.N,+12V*%
X162025000Y-117312500D03*
%TO.P,R1,2*%
%TO.N,Net-(C1-Pad1)*%
X162025000Y-115487500D03*
%TD*%
D20*
%TO.P,H3,1*%
%TO.N,N/C*%
X183750001Y-109649895D03*
%TD*%
D21*
%TO.P,J2,1,Pin_1*%
%TO.N,+12V*%
X157690000Y-109675000D03*
D22*
%TO.P,J2,2,Pin_2*%
%TO.N,GND*%
X158960000Y-109675000D03*
%TO.P,J2,3,Pin_3*%
%TO.N,CANL*%
X160230000Y-109675000D03*
%TO.P,J2,4,Pin_4*%
%TO.N,CANH*%
X161500000Y-109675000D03*
%TD*%
D23*
%TO.P,IC4,1,TXD*%
%TO.N,/mcu/TXCAN*%
X171224993Y-107204993D03*
%TO.P,IC4,2,GND*%
%TO.N,GND*%
X171224993Y-105934993D03*
%TO.P,IC4,3,VCC*%
%TO.N,+5V*%
X171224993Y-104664993D03*
%TO.P,IC4,4,RXD*%
%TO.N,/mcu/RXCAN*%
X171224993Y-103394993D03*
%TO.P,IC4,5,VREF*%
%TO.N,unconnected-(IC4-Pad5)*%
X165774993Y-103394993D03*
%TO.P,IC4,6,CANL*%
%TO.N,CANL*%
X165774993Y-104664993D03*
%TO.P,IC4,7,CANH*%
%TO.N,CANH*%
X165774993Y-105934993D03*
%TO.P,IC4,8,S*%
%TO.N,GND*%
X165774993Y-107204993D03*
%TD*%
D24*
%TO.P,U1,1,GND*%
%TO.N,GND*%
X156925007Y-115500008D03*
%TO.P,U1,2,VOUT*%
%TO.N,5V_CAR*%
X156925007Y-117400008D03*
%TO.P,U1,3,VIN*%
%TO.N,Net-(C1-Pad1)*%
X159925007Y-116450008D03*
%TD*%
D25*
%TO.P,C2,1*%
%TO.N,5V_CAR*%
X154825000Y-117312500D03*
%TO.P,C2,2*%
%TO.N,GND*%
X154825000Y-115587500D03*
%TD*%
D26*
%TO.P,C1,1*%
%TO.N,Net-(C1-Pad1)*%
X160252500Y-119050000D03*
%TO.P,C1,2*%
%TO.N,GND*%
X158527500Y-119050000D03*
%TD*%
%TO.P,C5,1*%
%TO.N,+5V*%
X159237500Y-102925000D03*
%TO.P,C5,2*%
%TO.N,GND*%
X157512500Y-102925000D03*
%TD*%
D27*
%TO.P,IC1,1,STAT*%
%TO.N,unconnected-(IC1-Pad1)*%
X156797000Y-104600000D03*
%TO.P,IC1,2,D0*%
%TO.N,unconnected-(IC1-Pad2)*%
X156797000Y-105250000D03*
%TO.P,IC1,3,D1*%
%TO.N,GND*%
X156797000Y-105900000D03*
%TO.P,IC1,4,ILIM*%
%TO.N,Net-(IC1-Pad4)*%
X156797000Y-106550000D03*
%TO.P,IC1,5,GND*%
%TO.N,GND*%
X162673000Y-106550000D03*
%TO.P,IC1,6,IN2*%
%TO.N,5V_USB*%
X162673000Y-105900000D03*
%TO.P,IC1,7,OUT*%
%TO.N,+5V*%
X162673000Y-105250000D03*
%TO.P,IC1,8,IN1*%
%TO.N,5V_CAR*%
X162673000Y-104600000D03*
%TD*%
D28*
%TO.P,D1,1*%
%TO.N,GND*%
X157225000Y-112950000D03*
%TO.P,D1,2*%
%TO.N,Net-(C1-Pad1)*%
X161325000Y-112950000D03*
%TD*%
D12*
%TO.P,R3,1*%
%TO.N,+5V*%
X160862500Y-102925000D03*
%TO.P,R3,2*%
%TO.N,GND*%
X162687500Y-102925000D03*
%TD*%
D20*
%TO.P,H2,1*%
%TO.N,N/C*%
X151550693Y-109649898D03*
%TD*%
D29*
%TO.N,/mcu/ICSP_MOSI*%
X164175008Y-111049994D03*
D30*
%TO.N,/mcu/ICSP_MISO*%
X168588339Y-108713339D03*
D29*
%TO.N,/mcu/ICSP_SCK*%
X175000006Y-113900001D03*
D30*
%TO.N,5V_CAR*%
X158550000Y-117425000D03*
%TO.N,GND*%
X153050000Y-118000000D03*
D29*
%TO.N,/mcu/TXCAN*%
X171675000Y-108250000D03*
%TO.N,/mcu/RXCAN*%
X172425004Y-103350009D03*
%TO.N,/mcu/RESET*%
X165200000Y-116400000D03*
X174300007Y-112900003D03*
D30*
%TO.N,GND*%
X163900000Y-101625000D03*
D29*
%TO.N,5V_USB*%
X160749996Y-106474997D03*
%TO.N,5V_CAR*%
X162275000Y-104425000D03*
D30*
%TO.N,+5V*%
X160925000Y-101825000D03*
%TO.N,Net-(IC1-Pad4)*%
X157975000Y-107700000D03*
%TO.N,GND*%
X156075000Y-103175000D03*
X155100000Y-105450000D03*
X163425000Y-107600000D03*
%TO.N,+5V*%
X167775000Y-104925000D03*
%TO.N,GND*%
X168775000Y-107475000D03*
X165500000Y-108525000D03*
X159200000Y-113225000D03*
X159000000Y-114775000D03*
X164875000Y-118725000D03*
D29*
%TO.N,/mcu/RXCAN*%
X172125005Y-119425009D03*
%TO.N,/mcu/TXCAN*%
X171226429Y-119421580D03*
D30*
%TO.N,GND*%
X169450000Y-109950000D03*
D29*
%TO.N,+5V*%
X169425010Y-119050003D03*
D30*
X170725000Y-109950000D03*
%TO.N,GND*%
X179025000Y-117900000D03*
X184000000Y-116375000D03*
X178200000Y-113825000D03*
X178375000Y-107875000D03*
%TD*%
D31*
%TO.N,GND*%
X164875000Y-118725000D02*
X165800000Y-119650000D01*
X165800000Y-119650000D02*
X169650000Y-119650000D01*
X169650000Y-119650000D02*
X170125000Y-119175000D01*
X170125000Y-119175000D02*
X170125000Y-118200000D01*
%TO.N,/mcu/ICSP_MOSI*%
X163750000Y-111475000D02*
X163750000Y-116572486D01*
X164175000Y-111050000D02*
X163750000Y-111475000D01*
X163750000Y-116572486D02*
X165600011Y-118422497D01*
X165600011Y-118475011D02*
X166175011Y-119050011D01*
X165600011Y-118422497D02*
X165600011Y-118475011D01*
X166175011Y-119050011D02*
X167960009Y-119050011D01*
X167960009Y-119050011D02*
X168175000Y-118835020D01*
X168175000Y-118835020D02*
X168175000Y-118200000D01*
%TO.N,/mcu/ICSP_MISO*%
X167525000Y-118200000D02*
X166143245Y-118200000D01*
X166143245Y-118200000D02*
X164350000Y-116406755D01*
X164350000Y-116406755D02*
X164350000Y-112100000D01*
X164650000Y-111797848D02*
X167822848Y-108625000D01*
X164350000Y-112100000D02*
X164650000Y-111800000D01*
X167822848Y-108625000D02*
X168500000Y-108625000D01*
X164650000Y-111800000D02*
X164650000Y-111797848D01*
X168500000Y-108625000D02*
X168588339Y-108713339D01*
%TO.N,+5V*%
X172500000Y-108356732D02*
X173226743Y-107629989D01*
X173226743Y-107629989D02*
X175089006Y-107629989D01*
X175089006Y-107629989D02*
X175889989Y-108430972D01*
X175889989Y-108430972D02*
X175889989Y-110602489D01*
X175889989Y-110602489D02*
X176712500Y-111425000D01*
%TO.N,/mcu/ICSP_SCK*%
X173150000Y-115175000D02*
X174300000Y-115175000D01*
X174300000Y-115175000D02*
X174600000Y-114875000D01*
X174600000Y-114875000D02*
X174600000Y-114175000D01*
X174600000Y-114175000D02*
X174875000Y-113900000D01*
X174875000Y-113900000D02*
X175000000Y-113900000D01*
%TO.N,+5V*%
X172500000Y-104830000D02*
X172335000Y-104665000D01*
X172335000Y-104665000D02*
X171225000Y-104665000D01*
X170725000Y-109950000D02*
X170906732Y-109950000D01*
X170906732Y-109950000D02*
X172500000Y-108356732D01*
X172500000Y-108356732D02*
X172500000Y-104830000D01*
%TO.N,5V_CAR*%
X158550000Y-117425000D02*
X156950000Y-117425000D01*
X156950000Y-117425000D02*
X156925000Y-117400000D01*
%TO.N,GND*%
X154100000Y-119050000D02*
X153050000Y-118000000D01*
X158527500Y-119050000D02*
X154100000Y-119050000D01*
%TO.N,/mcu/TXCAN*%
X171674985Y-108399985D02*
X171674985Y-107654985D01*
X171674985Y-107654985D02*
X171225000Y-107205000D01*
%TO.N,/mcu/RXCAN*%
X172425000Y-103350000D02*
X171270000Y-103350000D01*
X171270000Y-103350000D02*
X171225000Y-103395000D01*
%TO.N,/mcu/RESET*%
X165175000Y-116450000D02*
X166425000Y-116450000D01*
X166425000Y-116450000D02*
X166450000Y-116475000D01*
X174325000Y-112875000D02*
X174300000Y-112900000D01*
X175000000Y-112875000D02*
X174325000Y-112875000D01*
%TO.N,GND*%
X162687500Y-102837500D02*
X163900000Y-101625000D01*
X162687500Y-102925000D02*
X162687500Y-102837500D01*
%TO.N,5V_USB*%
X160750000Y-106475000D02*
X161325000Y-105900000D01*
X161325000Y-105900000D02*
X162673000Y-105900000D01*
%TO.N,5V_CAR*%
X162673000Y-104600000D02*
X162356798Y-104600000D01*
X162356798Y-104600000D02*
X162335000Y-104621798D01*
%TO.N,5V_USB*%
X163463556Y-105900000D02*
X162673000Y-105900000D01*
X164100000Y-105263556D02*
X163463556Y-105900000D01*
X164925000Y-101850000D02*
X164850000Y-101850000D01*
X165300000Y-101475000D02*
X164925000Y-101850000D01*
X164100000Y-102600000D02*
X164100000Y-105263556D01*
X175925000Y-101475000D02*
X165300000Y-101475000D01*
X177065000Y-102615000D02*
X175925000Y-101475000D01*
X164850000Y-101850000D02*
X164100000Y-102600000D01*
X177065000Y-103725000D02*
X177065000Y-102615000D01*
%TO.N,+5V*%
X160925000Y-101825000D02*
X160925000Y-102862500D01*
X160925000Y-102862500D02*
X160862500Y-102925000D01*
%TO.N,Net-(IC1-Pad4)*%
X157975000Y-107700000D02*
X157947000Y-107700000D01*
X157947000Y-107700000D02*
X156797000Y-106550000D01*
%TO.N,+5V*%
X159237500Y-104537500D02*
X160050000Y-105350000D01*
X159237500Y-102925000D02*
X159237500Y-104537500D01*
X160050000Y-105350000D02*
X162573000Y-105350000D01*
X162573000Y-105350000D02*
X162673000Y-105250000D01*
X159237500Y-102925000D02*
X160862500Y-102925000D01*
%TO.N,GND*%
X156325000Y-102925000D02*
X156075000Y-103175000D01*
X157512500Y-102925000D02*
X156325000Y-102925000D01*
X155550000Y-105900000D02*
X155100000Y-105450000D01*
X156797000Y-105900000D02*
X155550000Y-105900000D01*
X162673000Y-106848000D02*
X163425000Y-107600000D01*
X162673000Y-106550000D02*
X162673000Y-106848000D01*
%TO.N,+5V*%
X167775000Y-104925000D02*
X170965000Y-104925000D01*
X170965000Y-104925000D02*
X171225000Y-104665000D01*
%TO.N,GND*%
X170315000Y-105935000D02*
X168775000Y-107475000D01*
X171225000Y-105935000D02*
X170315000Y-105935000D01*
X165775000Y-108250000D02*
X165500000Y-108525000D01*
X165775000Y-107205000D02*
X165775000Y-108250000D01*
%TO.N,CANL*%
X164325000Y-108675000D02*
X160425000Y-108675000D01*
X164525000Y-108475000D02*
X164325000Y-108675000D01*
X165775000Y-104665000D02*
X165334980Y-104665000D01*
X165334980Y-104665000D02*
X164525000Y-105474980D01*
X164525000Y-105474980D02*
X164525000Y-108475000D01*
X160425000Y-108675000D02*
X160230000Y-108870000D01*
X160230000Y-108870000D02*
X160230000Y-109800000D01*
%TO.N,CANH*%
X165375000Y-109800000D02*
X167500000Y-107675000D01*
X161500000Y-109800000D02*
X165375000Y-109800000D01*
X167500000Y-107675000D02*
X167500000Y-107219980D01*
X167500000Y-107219980D02*
X166215020Y-105935000D01*
X166215020Y-105935000D02*
X165775000Y-105935000D01*
%TO.N,+12V*%
X157690000Y-109800000D02*
X159140000Y-111250000D01*
X159140000Y-111250000D02*
X162250000Y-111250000D01*
X162250000Y-111250000D02*
X163200000Y-112200000D01*
X163200000Y-112200000D02*
X163200000Y-116352500D01*
X163200000Y-116352500D02*
X161990000Y-117562500D01*
%TO.N,Net-(C1-Pad1)*%
X161990000Y-115737500D02*
X161990000Y-113750000D01*
X161990000Y-113750000D02*
X161340000Y-113100000D01*
%TO.N,GND*%
X159075000Y-113100000D02*
X159200000Y-113225000D01*
X157240000Y-113100000D02*
X159075000Y-113100000D01*
X157865000Y-114775000D02*
X159000000Y-114775000D01*
X156890000Y-115750000D02*
X157865000Y-114775000D01*
X154790000Y-115837500D02*
X156802500Y-115837500D01*
X156802500Y-115837500D02*
X156890000Y-115750000D01*
%TO.N,5V_CAR*%
X156890000Y-117650000D02*
X154877500Y-117650000D01*
X154877500Y-117650000D02*
X154790000Y-117562500D01*
%TO.N,Net-(C1-Pad1)*%
X159890000Y-116700000D02*
X161027500Y-116700000D01*
X161027500Y-116700000D02*
X161990000Y-115737500D01*
X160252500Y-119300000D02*
X160252500Y-117062500D01*
X160252500Y-117062500D02*
X159890000Y-116700000D01*
%TO.N,/mcu/RXCAN*%
X171425000Y-118725000D02*
X172125000Y-119425000D01*
X171425000Y-118200000D02*
X171425000Y-118725000D01*
%TO.N,/mcu/TXCAN*%
X170775000Y-118970148D02*
X171226424Y-119421572D01*
X170775000Y-118200000D02*
X170775000Y-118970148D01*
%TO.N,+5V*%
X169475000Y-118200000D02*
X169475000Y-119000000D01*
X169475000Y-119000000D02*
X169425000Y-119050000D01*
%TO.N,GND*%
X170125000Y-110625000D02*
X169450000Y-109950000D01*
X170125000Y-111500000D02*
X170125000Y-110625000D01*
%TO.N,+5V*%
X170725000Y-109950000D02*
X170725000Y-111450000D01*
X170725000Y-111450000D02*
X170775000Y-111500000D01*
%TO.N,/mcu/OSC_1*%
X180637500Y-117850000D02*
X180325000Y-117850000D01*
X180325000Y-117850000D02*
X179475000Y-118700000D01*
X179475000Y-118700000D02*
X176600000Y-118700000D01*
X176600000Y-118700000D02*
X175750000Y-117850000D01*
X175750000Y-117850000D02*
X175750000Y-117050000D01*
%TO.N,GND*%
X178175000Y-117050000D02*
X179025000Y-117900000D01*
X178050000Y-117050000D02*
X178175000Y-117050000D01*
X183875000Y-116250000D02*
X184000000Y-116375000D01*
X182362500Y-116250000D02*
X183875000Y-116250000D01*
X182362500Y-117850000D02*
X182362500Y-116250000D01*
%TO.N,/mcu/OSC_2*%
X180637500Y-116250000D02*
X179150000Y-116250000D01*
X179150000Y-116250000D02*
X178050000Y-115150000D01*
%TO.N,GND*%
X177075000Y-113825000D02*
X178200000Y-113825000D01*
X175750000Y-115150000D02*
X177075000Y-113825000D01*
%TO.N,/mcu/OSC_1*%
X173150000Y-116475000D02*
X173150031Y-116475031D01*
X173150031Y-116475031D02*
X175175031Y-116475031D01*
X175175031Y-116475031D02*
X175750000Y-117050000D01*
%TO.N,/mcu/OSC_2*%
X173150000Y-115825000D02*
X174639980Y-115825000D01*
X174639980Y-115825000D02*
X174839991Y-116025011D01*
X174839991Y-116025011D02*
X177174989Y-116025011D01*
X177174989Y-116025011D02*
X178050000Y-115150000D01*
%TO.N,/mcu/OSC_1*%
X175750000Y-117050000D02*
X175650000Y-116950000D01*
%TO.N,GND*%
X178050000Y-117050000D02*
X178050000Y-117150000D01*
X175750000Y-115150000D02*
X175750000Y-114925000D01*
X177445000Y-108805000D02*
X178375000Y-107875000D01*
X177065000Y-108805000D02*
X177445000Y-108805000D01*
%TO.N,+5V*%
X176500000Y-112875000D02*
X176500000Y-111637500D01*
X176500000Y-111637500D02*
X176712500Y-111425000D01*
%TO.N,/mcu/RESET*%
X175000000Y-112875000D02*
X175000000Y-109280000D01*
X175000000Y-109280000D02*
X174525000Y-108805000D01*
%TD*%
M02*
