%TF.GenerationSoftware,KiCad,Pcbnew,(5.99.0-8996-g10442b98df)*%
%TF.CreationDate,2021-04-19T08:50:07+01:00*%
%TF.ProjectId,CANduino,43414e64-7569-46e6-9f2e-6b696361645f,rev?*%
%TF.SameCoordinates,Original*%
%TF.FileFunction,Copper,L4,Bot*%
%TF.FilePolarity,Positive*%
%FSLAX46Y46*%
G04 Gerber Fmt 4.6, Leading zero omitted, Abs format (unit mm)*
G04 Created by KiCad (PCBNEW (5.99.0-8996-g10442b98df)) date 2021-04-19 08:50:07*
%MOMM*%
%LPD*%
G01*
G04 APERTURE LIST*
G04 Aperture macros list*
%AMRoundRect*
0 Rectangle with rounded corners*
0 $1 Rounding radius*
0 $2 $3 $4 $5 $6 $7 $8 $9 X,Y pos of 4 corners*
0 Add a 4 corners polygon primitive as box body*
4,1,4,$2,$3,$4,$5,$6,$7,$8,$9,$2,$3,0*
0 Add four circle primitives for the rounded corners*
1,1,$1+$1,$2,$3*
1,1,$1+$1,$4,$5*
1,1,$1+$1,$6,$7*
1,1,$1+$1,$8,$9*
0 Add four rect primitives between the rounded corners*
20,1,$1+$1,$2,$3,$4,$5,0*
20,1,$1+$1,$4,$5,$6,$7,0*
20,1,$1+$1,$6,$7,$8,$9,0*
20,1,$1+$1,$8,$9,$2,$3,0*%
G04 Aperture macros list end*
%TA.AperFunction,ComponentPad*%
%ADD10O,1.700000X1.700000*%
%TD*%
%TA.AperFunction,ComponentPad*%
%ADD11R,1.700000X1.700000*%
%TD*%
%TA.AperFunction,SMDPad,CuDef*%
%ADD12RoundRect,0.237500X-0.237500X0.300000X-0.237500X-0.300000X0.237500X-0.300000X0.237500X0.300000X0*%
%TD*%
%TA.AperFunction,SMDPad,CuDef*%
%ADD13RoundRect,0.237500X-0.300000X-0.237500X0.300000X-0.237500X0.300000X0.237500X-0.300000X0.237500X0*%
%TD*%
%TA.AperFunction,ComponentPad*%
%ADD14C,8.382000*%
%TD*%
%TA.AperFunction,ComponentPad*%
%ADD15R,1.000000X1.000000*%
%TD*%
%TA.AperFunction,ComponentPad*%
%ADD16O,1.000000X1.000000*%
%TD*%
%TA.AperFunction,SMDPad,CuDef*%
%ADD17RoundRect,0.237500X-0.237500X0.250000X-0.237500X-0.250000X0.237500X-0.250000X0.237500X0.250000X0*%
%TD*%
%TA.AperFunction,SMDPad,CuDef*%
%ADD18RoundRect,0.237500X0.237500X-0.300000X0.237500X0.300000X-0.237500X0.300000X-0.237500X-0.300000X0*%
%TD*%
%TA.AperFunction,ViaPad*%
%ADD19C,0.508000*%
%TD*%
%TA.AperFunction,ViaPad*%
%ADD20C,0.800000*%
%TD*%
%TA.AperFunction,Conductor*%
%ADD21C,0.250000*%
%TD*%
G04 APERTURE END LIST*
D10*
%TO.P,J1,6,Pin_6*%
%TO.N,GND*%
X177065000Y-108805000D03*
%TO.P,J1,5,Pin_5*%
%TO.N,/mcu/RESET*%
X174525000Y-108805000D03*
%TO.P,J1,4,Pin_4*%
%TO.N,/mcu/ICSP_MOSI*%
X177065000Y-106265000D03*
%TO.P,J1,3,Pin_3*%
%TO.N,/mcu/ICSP_SCK*%
X174525000Y-106265000D03*
%TO.P,J1,2,Pin_2*%
%TO.N,5V_USB*%
X177065000Y-103725000D03*
D11*
%TO.P,J1,1,Pin_1*%
%TO.N,/mcu/ICSP_MISO*%
X174525000Y-103725000D03*
%TD*%
D12*
%TO.P,C13,2*%
%TO.N,+5V*%
X170450000Y-116512500D03*
%TO.P,C13,1*%
%TO.N,GND*%
X170450000Y-114787500D03*
%TD*%
D13*
%TO.P,C12,2*%
%TO.N,+5V*%
X170437500Y-113075000D03*
%TO.P,C12,1*%
%TO.N,GND*%
X168712500Y-113075000D03*
%TD*%
D12*
%TO.P,C6,2*%
%TO.N,+5V*%
X168850000Y-116512500D03*
%TO.P,C6,1*%
%TO.N,GND*%
X168850000Y-114787500D03*
%TD*%
D14*
%TO.P,H3,1*%
%TO.N,N/C*%
X183750001Y-109649895D03*
%TD*%
D15*
%TO.P,J2,1,Pin_1*%
%TO.N,+12V*%
X157690000Y-109675000D03*
D16*
%TO.P,J2,2,Pin_2*%
%TO.N,GND*%
X158960000Y-109675000D03*
%TO.P,J2,3,Pin_3*%
%TO.N,CANL*%
X160230000Y-109675000D03*
%TO.P,J2,4,Pin_4*%
%TO.N,CANH*%
X161500000Y-109675000D03*
%TD*%
D14*
%TO.P,H2,1*%
%TO.N,N/C*%
X151550693Y-109649898D03*
%TD*%
D17*
%TO.P,R2,1*%
%TO.N,GND*%
X159085000Y-104662500D03*
%TO.P,R2,2*%
%TO.N,Net-(IC1-Pad4)*%
X159085000Y-106487500D03*
%TD*%
D12*
%TO.P,C15,1*%
%TO.N,+5V*%
X169100000Y-104437500D03*
%TO.P,C15,2*%
%TO.N,GND*%
X169100000Y-106162500D03*
%TD*%
D18*
%TO.P,C3,1*%
%TO.N,GND*%
X162335000Y-106437500D03*
%TO.P,C3,2*%
%TO.N,5V_CAR*%
X162335000Y-104712500D03*
%TD*%
%TO.P,C4,1*%
%TO.N,5V_USB*%
X160735000Y-106437500D03*
%TO.P,C4,2*%
%TO.N,GND*%
X160735000Y-104712500D03*
%TD*%
D19*
%TO.N,/mcu/ICSP_MOSI*%
X164175008Y-111049994D03*
D20*
%TO.N,/mcu/ICSP_MISO*%
X168588339Y-108713339D03*
D19*
%TO.N,/mcu/ICSP_SCK*%
X175000006Y-113900001D03*
D20*
%TO.N,5V_CAR*%
X158550000Y-117425000D03*
%TO.N,GND*%
X153050000Y-118000000D03*
D19*
%TO.N,/mcu/TXCAN*%
X171675000Y-108250000D03*
%TO.N,/mcu/RXCAN*%
X172425004Y-103350009D03*
%TO.N,/mcu/RESET*%
X165200000Y-116400000D03*
X174300007Y-112900003D03*
D20*
%TO.N,GND*%
X163900000Y-101625000D03*
D19*
%TO.N,5V_USB*%
X160749996Y-106474997D03*
%TO.N,5V_CAR*%
X162275000Y-104425000D03*
D20*
%TO.N,+5V*%
X160925000Y-101825000D03*
%TO.N,Net-(IC1-Pad4)*%
X157975000Y-107700000D03*
%TO.N,GND*%
X156075000Y-103175000D03*
X155100000Y-105450000D03*
X163425000Y-107600000D03*
%TO.N,+5V*%
X167775000Y-104925000D03*
%TO.N,GND*%
X168775000Y-107475000D03*
X165500000Y-108525000D03*
X159200000Y-113225000D03*
X159000000Y-114775000D03*
X164875000Y-118725000D03*
D19*
%TO.N,/mcu/RXCAN*%
X172125005Y-119425009D03*
%TO.N,/mcu/TXCAN*%
X171226429Y-119421580D03*
D20*
%TO.N,GND*%
X169450000Y-109950000D03*
D19*
%TO.N,+5V*%
X169425010Y-119050003D03*
D20*
X170725000Y-109950000D03*
%TO.N,GND*%
X179025000Y-117900000D03*
X184000000Y-116375000D03*
X178200000Y-113825000D03*
X178375000Y-107875000D03*
%TD*%
D21*
%TO.N,GND*%
X168712500Y-113075000D02*
X168712500Y-110687500D01*
X168712500Y-110687500D02*
X169450000Y-109950000D01*
%TO.N,/mcu/ICSP_SCK*%
X175700011Y-113199989D02*
X175000000Y-113900000D01*
X174525000Y-106265000D02*
X175700011Y-107440011D01*
X175700011Y-107440011D02*
X175700011Y-113199989D01*
%TO.N,+5V*%
X169999989Y-109224989D02*
X170725000Y-109950000D01*
X168850000Y-117125000D02*
X167725000Y-116000000D01*
X167725000Y-116000000D02*
X167725000Y-110601983D01*
X167725000Y-110601983D02*
X169101994Y-109224989D01*
X169101994Y-109224989D02*
X169999989Y-109224989D01*
X168850000Y-117325000D02*
X168850000Y-117125000D01*
X168850000Y-117125000D02*
X168850000Y-116512500D01*
%TO.N,GND*%
X162335000Y-106437500D02*
X162335000Y-106510000D01*
X162335000Y-106510000D02*
X163425000Y-107600000D01*
%TO.N,5V_CAR*%
X156864989Y-115739989D02*
X158550000Y-117425000D01*
X156864989Y-105599487D02*
X156864989Y-115739989D01*
X158614496Y-103849980D02*
X156864989Y-105599487D01*
X161472480Y-103849980D02*
X158614496Y-103849980D01*
X162335000Y-104712500D02*
X161472480Y-103849980D01*
%TO.N,/mcu/RXCAN*%
X172125005Y-119425009D02*
X172125005Y-109074995D01*
X172125005Y-109074995D02*
X172475000Y-108725000D01*
X172475000Y-108725000D02*
X172475000Y-103400000D01*
X172475000Y-103400000D02*
X172425000Y-103350000D01*
%TO.N,/mcu/TXCAN*%
X171674985Y-108399985D02*
X171650000Y-108375000D01*
X171674985Y-118973024D02*
X171674985Y-108399985D01*
X171226429Y-119421580D02*
X171674985Y-118973024D01*
%TO.N,GND*%
X162335000Y-106437500D02*
X162335000Y-106312500D01*
X162335000Y-106312500D02*
X160735000Y-104712500D01*
X159085000Y-104662500D02*
X160685000Y-104662500D01*
X160685000Y-104662500D02*
X160735000Y-104712500D01*
%TO.N,5V_USB*%
X160735000Y-106460000D02*
X160750000Y-106475000D01*
X160735000Y-106437500D02*
X160735000Y-106460000D01*
%TO.N,Net-(IC1-Pad4)*%
X159085000Y-106590000D02*
X157975000Y-107700000D01*
X159085000Y-106487500D02*
X159085000Y-106590000D01*
%TO.N,GND*%
X159085000Y-104662500D02*
X159085000Y-104787500D01*
%TO.N,+5V*%
X168262500Y-104437500D02*
X167775000Y-104925000D01*
X169100000Y-104437500D02*
X168262500Y-104437500D01*
%TO.N,GND*%
X169100000Y-106162500D02*
X169100000Y-107150000D01*
X169100000Y-107150000D02*
X168775000Y-107475000D01*
%TO.N,+5V*%
X168850000Y-118625000D02*
X168850000Y-117325000D01*
X168850000Y-117325000D02*
X168850000Y-118475000D01*
X168850000Y-118475000D02*
X169425000Y-119050000D01*
X170450000Y-116512500D02*
X168850000Y-116512500D01*
X170437500Y-110237500D02*
X170725000Y-109950000D01*
X170437500Y-113075000D02*
X170437500Y-110237500D01*
%TO.N,GND*%
X168712500Y-113075000D02*
X168712500Y-114650000D01*
X168712500Y-114650000D02*
X168850000Y-114787500D01*
X170450000Y-114787500D02*
X168850000Y-114787500D01*
%TD*%
M02*
