%TF.GenerationSoftware,KiCad,Pcbnew,(5.99.0-8996-g10442b98df)*%
%TF.CreationDate,2021-04-19T08:50:07+01:00*%
%TF.ProjectId,CANduino,43414e64-7569-46e6-9f2e-6b696361645f,rev?*%
%TF.SameCoordinates,Original*%
%TF.FileFunction,Legend,Top*%
%TF.FilePolarity,Positive*%
%FSLAX46Y46*%
G04 Gerber Fmt 4.6, Leading zero omitted, Abs format (unit mm)*
G04 Created by KiCad (PCBNEW (5.99.0-8996-g10442b98df)) date 2021-04-19 08:50:07*
%MOMM*%
%LPD*%
G01*
G04 APERTURE LIST*
%ADD10C,0.152400*%
%ADD11C,0.150000*%
%ADD12C,0.100000*%
%ADD13C,0.200000*%
%ADD14C,0.120000*%
%ADD15C,0.325000*%
G04 APERTURE END LIST*
D10*
%TO.C,Y1*%
X177778287Y-118526410D02*
X177778287Y-118998124D01*
X177448087Y-118007524D02*
X177778287Y-118526410D01*
X178108487Y-118007524D01*
X178957573Y-118998124D02*
X178391516Y-118998124D01*
X178674544Y-118998124D02*
X178674544Y-118007524D01*
X178580202Y-118149038D01*
X178485859Y-118243381D01*
X178391516Y-118290553D01*
%TO.C,Z1*%
X177210585Y-112307528D02*
X177870985Y-112307528D01*
X177210585Y-113298128D01*
X177870985Y-113298128D01*
X178767242Y-113298128D02*
X178201185Y-113298128D01*
X178484214Y-113298128D02*
X178484214Y-112307528D01*
X178389871Y-112449042D01*
X178295528Y-112543385D01*
X178201185Y-112590557D01*
D11*
%TO.C,R4*%
X178308333Y-111827380D02*
X177975000Y-111351190D01*
X177736904Y-111827380D02*
X177736904Y-110827380D01*
X178117857Y-110827380D01*
X178213095Y-110875000D01*
X178260714Y-110922619D01*
X178308333Y-111017857D01*
X178308333Y-111160714D01*
X178260714Y-111255952D01*
X178213095Y-111303571D01*
X178117857Y-111351190D01*
X177736904Y-111351190D01*
X179165476Y-111160714D02*
X179165476Y-111827380D01*
X178927380Y-110779761D02*
X178689285Y-111494047D01*
X179308333Y-111494047D01*
%TO.C,J1*%
X179516666Y-102552380D02*
X179516666Y-103266666D01*
X179469047Y-103409523D01*
X179373809Y-103504761D01*
X179230952Y-103552380D01*
X179135714Y-103552380D01*
X180516666Y-103552380D02*
X179945238Y-103552380D01*
X180230952Y-103552380D02*
X180230952Y-102552380D01*
X180135714Y-102695238D01*
X180040476Y-102790476D01*
X179945238Y-102838095D01*
D10*
%TO.C,H1*%
X165345248Y-111848140D02*
X165345248Y-110857540D01*
X165345248Y-111329254D02*
X165911305Y-111329254D01*
X165911305Y-111848140D02*
X165911305Y-110857540D01*
X166901905Y-111848140D02*
X166335848Y-111848140D01*
X166618876Y-111848140D02*
X166618876Y-110857540D01*
X166524533Y-110999054D01*
X166430191Y-111093397D01*
X166335848Y-111140569D01*
D11*
%TO.C,C11*%
X181207142Y-115157142D02*
X181159523Y-115204761D01*
X181016666Y-115252380D01*
X180921428Y-115252380D01*
X180778571Y-115204761D01*
X180683333Y-115109523D01*
X180635714Y-115014285D01*
X180588095Y-114823809D01*
X180588095Y-114680952D01*
X180635714Y-114490476D01*
X180683333Y-114395238D01*
X180778571Y-114300000D01*
X180921428Y-114252380D01*
X181016666Y-114252380D01*
X181159523Y-114300000D01*
X181207142Y-114347619D01*
X182159523Y-115252380D02*
X181588095Y-115252380D01*
X181873809Y-115252380D02*
X181873809Y-114252380D01*
X181778571Y-114395238D01*
X181683333Y-114490476D01*
X181588095Y-114538095D01*
X183111904Y-115252380D02*
X182540476Y-115252380D01*
X182826190Y-115252380D02*
X182826190Y-114252380D01*
X182730952Y-114395238D01*
X182635714Y-114490476D01*
X182540476Y-114538095D01*
%TO.C,C7*%
X180633333Y-119657142D02*
X180585714Y-119704761D01*
X180442857Y-119752380D01*
X180347619Y-119752380D01*
X180204761Y-119704761D01*
X180109523Y-119609523D01*
X180061904Y-119514285D01*
X180014285Y-119323809D01*
X180014285Y-119180952D01*
X180061904Y-118990476D01*
X180109523Y-118895238D01*
X180204761Y-118800000D01*
X180347619Y-118752380D01*
X180442857Y-118752380D01*
X180585714Y-118800000D01*
X180633333Y-118847619D01*
X180966666Y-118752380D02*
X181633333Y-118752380D01*
X181204761Y-119752380D01*
%TO.C,R1*%
X163618333Y-117902380D02*
X163285000Y-117426190D01*
X163046904Y-117902380D02*
X163046904Y-116902380D01*
X163427857Y-116902380D01*
X163523095Y-116950000D01*
X163570714Y-116997619D01*
X163618333Y-117092857D01*
X163618333Y-117235714D01*
X163570714Y-117330952D01*
X163523095Y-117378571D01*
X163427857Y-117426190D01*
X163046904Y-117426190D01*
X164570714Y-117902380D02*
X163999285Y-117902380D01*
X164285000Y-117902380D02*
X164285000Y-116902380D01*
X164189761Y-117045238D01*
X164094523Y-117140476D01*
X163999285Y-117188095D01*
%TO.C,J2*%
X154441666Y-103652380D02*
X154441666Y-104366666D01*
X154394047Y-104509523D01*
X154298809Y-104604761D01*
X154155952Y-104652380D01*
X154060714Y-104652380D01*
X154870238Y-103747619D02*
X154917857Y-103700000D01*
X155013095Y-103652380D01*
X155251190Y-103652380D01*
X155346428Y-103700000D01*
X155394047Y-103747619D01*
X155441666Y-103842857D01*
X155441666Y-103938095D01*
X155394047Y-104080952D01*
X154822619Y-104652380D01*
X155441666Y-104652380D01*
D10*
%TO.C,IC4*%
X167432971Y-102198133D02*
X167432971Y-101207533D01*
X168470743Y-102103790D02*
X168423571Y-102150962D01*
X168282057Y-102198133D01*
X168187714Y-102198133D01*
X168046200Y-102150962D01*
X167951857Y-102056619D01*
X167904686Y-101962276D01*
X167857514Y-101773590D01*
X167857514Y-101632076D01*
X167904686Y-101443390D01*
X167951857Y-101349047D01*
X168046200Y-101254705D01*
X168187714Y-101207533D01*
X168282057Y-101207533D01*
X168423571Y-101254705D01*
X168470743Y-101301876D01*
X169319828Y-101537733D02*
X169319828Y-102198133D01*
X169083971Y-101160362D02*
X168848114Y-101867933D01*
X169461343Y-101867933D01*
D11*
%TO.C,U1*%
X155763102Y-118377388D02*
X155763102Y-119186912D01*
X155810721Y-119282150D01*
X155858340Y-119329769D01*
X155953578Y-119377388D01*
X156144054Y-119377388D01*
X156239292Y-119329769D01*
X156286911Y-119282150D01*
X156334530Y-119186912D01*
X156334530Y-118377388D01*
X157334530Y-119377388D02*
X156763102Y-119377388D01*
X157048816Y-119377388D02*
X157048816Y-118377388D01*
X156953578Y-118520246D01*
X156858340Y-118615484D01*
X156763102Y-118663103D01*
%TO.C,C2*%
X154568333Y-114407142D02*
X154520714Y-114454761D01*
X154377857Y-114502380D01*
X154282619Y-114502380D01*
X154139761Y-114454761D01*
X154044523Y-114359523D01*
X153996904Y-114264285D01*
X153949285Y-114073809D01*
X153949285Y-113930952D01*
X153996904Y-113740476D01*
X154044523Y-113645238D01*
X154139761Y-113550000D01*
X154282619Y-113502380D01*
X154377857Y-113502380D01*
X154520714Y-113550000D01*
X154568333Y-113597619D01*
X154949285Y-113597619D02*
X154996904Y-113550000D01*
X155092142Y-113502380D01*
X155330238Y-113502380D01*
X155425476Y-113550000D01*
X155473095Y-113597619D01*
X155520714Y-113692857D01*
X155520714Y-113788095D01*
X155473095Y-113930952D01*
X154901666Y-114502380D01*
X155520714Y-114502380D01*
%TO.C,C1*%
X161873333Y-119447142D02*
X161825714Y-119494761D01*
X161682857Y-119542380D01*
X161587619Y-119542380D01*
X161444761Y-119494761D01*
X161349523Y-119399523D01*
X161301904Y-119304285D01*
X161254285Y-119113809D01*
X161254285Y-118970952D01*
X161301904Y-118780476D01*
X161349523Y-118685238D01*
X161444761Y-118590000D01*
X161587619Y-118542380D01*
X161682857Y-118542380D01*
X161825714Y-118590000D01*
X161873333Y-118637619D01*
X162825714Y-119542380D02*
X162254285Y-119542380D01*
X162540000Y-119542380D02*
X162540000Y-118542380D01*
X162444761Y-118685238D01*
X162349523Y-118780476D01*
X162254285Y-118828095D01*
%TO.C,C5*%
X159018333Y-101932142D02*
X158970714Y-101979761D01*
X158827857Y-102027380D01*
X158732619Y-102027380D01*
X158589761Y-101979761D01*
X158494523Y-101884523D01*
X158446904Y-101789285D01*
X158399285Y-101598809D01*
X158399285Y-101455952D01*
X158446904Y-101265476D01*
X158494523Y-101170238D01*
X158589761Y-101075000D01*
X158732619Y-101027380D01*
X158827857Y-101027380D01*
X158970714Y-101075000D01*
X159018333Y-101122619D01*
X159923095Y-101027380D02*
X159446904Y-101027380D01*
X159399285Y-101503571D01*
X159446904Y-101455952D01*
X159542142Y-101408333D01*
X159780238Y-101408333D01*
X159875476Y-101455952D01*
X159923095Y-101503571D01*
X159970714Y-101598809D01*
X159970714Y-101836904D01*
X159923095Y-101932142D01*
X159875476Y-101979761D01*
X159780238Y-102027380D01*
X159542142Y-102027380D01*
X159446904Y-101979761D01*
X159399285Y-101932142D01*
D10*
%TO.C,IC1*%
X162427974Y-108773126D02*
X162427974Y-107782526D01*
X163465746Y-108678783D02*
X163418574Y-108725955D01*
X163277060Y-108773126D01*
X163182717Y-108773126D01*
X163041203Y-108725955D01*
X162946860Y-108631612D01*
X162899689Y-108537269D01*
X162852517Y-108348583D01*
X162852517Y-108207069D01*
X162899689Y-108018383D01*
X162946860Y-107924040D01*
X163041203Y-107829698D01*
X163182717Y-107782526D01*
X163277060Y-107782526D01*
X163418574Y-107829698D01*
X163465746Y-107876869D01*
X164409174Y-108773126D02*
X163843117Y-108773126D01*
X164126146Y-108773126D02*
X164126146Y-107782526D01*
X164031803Y-107924040D01*
X163937460Y-108018383D01*
X163843117Y-108065555D01*
%TO.C,D1*%
X163253844Y-113248118D02*
X163253844Y-112257518D01*
X163489702Y-112257518D01*
X163631216Y-112304690D01*
X163725559Y-112399032D01*
X163772730Y-112493375D01*
X163819902Y-112682061D01*
X163819902Y-112823575D01*
X163772730Y-113012261D01*
X163725559Y-113106604D01*
X163631216Y-113200947D01*
X163489702Y-113248118D01*
X163253844Y-113248118D01*
X164763330Y-113248118D02*
X164197273Y-113248118D01*
X164480302Y-113248118D02*
X164480302Y-112257518D01*
X164385959Y-112399032D01*
X164291616Y-112493375D01*
X164197273Y-112540547D01*
D11*
%TO.C,R3*%
X162368333Y-102027380D02*
X162035000Y-101551190D01*
X161796904Y-102027380D02*
X161796904Y-101027380D01*
X162177857Y-101027380D01*
X162273095Y-101075000D01*
X162320714Y-101122619D01*
X162368333Y-101217857D01*
X162368333Y-101360714D01*
X162320714Y-101455952D01*
X162273095Y-101503571D01*
X162177857Y-101551190D01*
X161796904Y-101551190D01*
X162701666Y-101027380D02*
X163320714Y-101027380D01*
X162987380Y-101408333D01*
X163130238Y-101408333D01*
X163225476Y-101455952D01*
X163273095Y-101503571D01*
X163320714Y-101598809D01*
X163320714Y-101836904D01*
X163273095Y-101932142D01*
X163225476Y-101979761D01*
X163130238Y-102027380D01*
X162844523Y-102027380D01*
X162749285Y-101979761D01*
X162701666Y-101932142D01*
D12*
%TO.C,Y1*%
X175500002Y-117899996D02*
G75*
G02*
X175400002Y-117899996I-50000J0D01*
G01*
X175400002Y-117899996D02*
G75*
G02*
X175500002Y-117899996I50000J0D01*
G01*
X175400002Y-117899996D02*
X175400002Y-117899996D01*
X175500002Y-117899996D02*
X175500002Y-117899996D01*
X178500002Y-115899996D02*
X178500002Y-116299996D01*
X175300002Y-115899996D02*
X175300002Y-116299996D01*
X176700002Y-117349996D02*
X177100002Y-117349996D01*
X176700002Y-114849996D02*
X177100002Y-114849996D01*
D13*
%TO.C,Z1*%
X176350000Y-112475000D02*
X175150000Y-112475000D01*
X176820000Y-113275000D02*
X175150000Y-113275000D01*
D14*
%TO.C,R4*%
X175545276Y-111947500D02*
X176054724Y-111947500D01*
X175545276Y-110902500D02*
X176054724Y-110902500D01*
%TO.C,J1*%
X173195000Y-102395000D02*
X174525000Y-102395000D01*
X173195000Y-103725000D02*
X173195000Y-102395000D01*
X175795000Y-102395000D02*
X178395000Y-102395000D01*
X175795000Y-104995000D02*
X175795000Y-102395000D01*
X173195000Y-104995000D02*
X175795000Y-104995000D01*
X178395000Y-102395000D02*
X178395000Y-110135000D01*
X173195000Y-104995000D02*
X173195000Y-110135000D01*
X173195000Y-110135000D02*
X178395000Y-110135000D01*
D15*
%TO.C,H1*%
X166712491Y-118724512D02*
G75*
G03*
X166712491Y-118724512I-162500J0D01*
G01*
D14*
%TO.C,C11*%
X181353733Y-116760000D02*
X181646267Y-116760000D01*
X181353733Y-115740000D02*
X181646267Y-115740000D01*
%TO.C,C7*%
X181353733Y-118360000D02*
X181646267Y-118360000D01*
X181353733Y-117340000D02*
X181646267Y-117340000D01*
%TO.C,R1*%
X161502500Y-116654724D02*
X161502500Y-116145276D01*
X162547500Y-116654724D02*
X162547500Y-116145276D01*
%TO.C,J2*%
X156930000Y-110785000D02*
X156930000Y-109675000D01*
X158450000Y-108565000D02*
X162195000Y-108565000D01*
X158450000Y-110785000D02*
X162195000Y-110785000D01*
X158450000Y-109111529D02*
X158450000Y-108565000D01*
X157690000Y-110785000D02*
X156930000Y-110785000D01*
X162195000Y-109367470D02*
X162195000Y-108565000D01*
X158450000Y-110785000D02*
X158450000Y-110238471D01*
X162195000Y-110785000D02*
X162195000Y-109982530D01*
D13*
%TO.C,IC4*%
X170099993Y-107749993D02*
X166899993Y-107749993D01*
X171999993Y-107904993D02*
X170449993Y-107904993D01*
X166899993Y-107749993D02*
X166899993Y-102849993D01*
X166899993Y-102849993D02*
X170099993Y-102849993D01*
X170099993Y-102849993D02*
X170099993Y-107749993D01*
D14*
%TO.C,U1*%
X159185007Y-118030008D02*
X157725007Y-118030008D01*
X159185007Y-118030008D02*
X159185007Y-117100008D01*
X159185007Y-114870008D02*
X159185007Y-115800008D01*
X159185007Y-114870008D02*
X156025007Y-114870008D01*
%TO.C,C2*%
X154315000Y-116596267D02*
X154315000Y-116303733D01*
X155335000Y-116596267D02*
X155335000Y-116303733D01*
%TO.C,C1*%
X159536267Y-119560000D02*
X159243733Y-119560000D01*
X159536267Y-118540000D02*
X159243733Y-118540000D01*
%TO.C,C5*%
X158521267Y-103435000D02*
X158228733Y-103435000D01*
X158521267Y-102415000D02*
X158228733Y-102415000D01*
D13*
%TO.C,IC1*%
X157885000Y-107075000D02*
X157885000Y-104075000D01*
X157885000Y-104075000D02*
X161585000Y-104075000D01*
X161585000Y-104075000D02*
X161585000Y-107075000D01*
X156060000Y-104025000D02*
X157535000Y-104025000D01*
X161585000Y-107075000D02*
X157885000Y-107075000D01*
%TO.C,D1*%
X156723000Y-114282000D02*
X161827000Y-114282000D01*
X161827000Y-111618000D02*
X156723000Y-111618000D01*
D14*
%TO.C,R3*%
X161520276Y-103447500D02*
X162029724Y-103447500D01*
X161520276Y-102402500D02*
X162029724Y-102402500D01*
%TD*%
M02*
