%TF.GenerationSoftware,KiCad,Pcbnew,(5.99.0-8996-g10442b98df)*%
%TF.CreationDate,2021-04-19T08:50:07+01:00*%
%TF.ProjectId,CANduino,43414e64-7569-46e6-9f2e-6b696361645f,rev?*%
%TF.SameCoordinates,Original*%
%TF.FileFunction,Copper,L2,Inr*%
%TF.FilePolarity,Positive*%
%FSLAX46Y46*%
G04 Gerber Fmt 4.6, Leading zero omitted, Abs format (unit mm)*
G04 Created by KiCad (PCBNEW (5.99.0-8996-g10442b98df)) date 2021-04-19 08:50:07*
%MOMM*%
%LPD*%
G01*
G04 APERTURE LIST*
%TA.AperFunction,ComponentPad*%
%ADD10O,1.700000X1.700000*%
%TD*%
%TA.AperFunction,ComponentPad*%
%ADD11R,1.700000X1.700000*%
%TD*%
%TA.AperFunction,ComponentPad*%
%ADD12C,8.382000*%
%TD*%
%TA.AperFunction,ComponentPad*%
%ADD13R,1.000000X1.000000*%
%TD*%
%TA.AperFunction,ComponentPad*%
%ADD14O,1.000000X1.000000*%
%TD*%
%TA.AperFunction,ViaPad*%
%ADD15C,0.508000*%
%TD*%
%TA.AperFunction,ViaPad*%
%ADD16C,0.800000*%
%TD*%
G04 APERTURE END LIST*
D10*
%TO.N,GND*%
%TO.C,J1*%
X177065000Y-108805000D03*
%TO.N,/mcu/RESET*%
X174525000Y-108805000D03*
%TO.N,/mcu/ICSP_MOSI*%
X177065000Y-106265000D03*
%TO.N,/mcu/ICSP_SCK*%
X174525000Y-106265000D03*
%TO.N,5V_USB*%
X177065000Y-103725000D03*
D11*
%TO.N,/mcu/ICSP_MISO*%
X174525000Y-103725000D03*
%TD*%
D12*
%TO.N,N/C*%
%TO.C,H3*%
X183750001Y-109649895D03*
%TD*%
D13*
%TO.N,+12V*%
%TO.C,J2*%
X157690000Y-109675000D03*
D14*
%TO.N,GND*%
X158960000Y-109675000D03*
%TO.N,CANL*%
X160230000Y-109675000D03*
%TO.N,CANH*%
X161500000Y-109675000D03*
%TD*%
D12*
%TO.N,N/C*%
%TO.C,H2*%
X151550693Y-109649898D03*
%TD*%
D15*
%TO.N,/mcu/ICSP_MOSI*%
X164175008Y-111049994D03*
D16*
%TO.N,/mcu/ICSP_MISO*%
X168588339Y-108713339D03*
D15*
%TO.N,/mcu/ICSP_SCK*%
X175000006Y-113900001D03*
D16*
%TO.N,5V_CAR*%
X158550000Y-117425000D03*
%TO.N,GND*%
X153050000Y-118000000D03*
D15*
%TO.N,/mcu/TXCAN*%
X171675000Y-108250000D03*
%TO.N,/mcu/RXCAN*%
X172425004Y-103350009D03*
%TO.N,/mcu/RESET*%
X165200000Y-116400000D03*
X174300007Y-112900003D03*
D16*
%TO.N,GND*%
X163900000Y-101625000D03*
D15*
%TO.N,5V_USB*%
X160749996Y-106474997D03*
%TO.N,5V_CAR*%
X162275000Y-104425000D03*
D16*
%TO.N,+5V*%
X160925000Y-101825000D03*
%TO.N,Net-(IC1-Pad4)*%
X157975000Y-107700000D03*
%TO.N,GND*%
X156075000Y-103175000D03*
X155100000Y-105450000D03*
X163425000Y-107600000D03*
%TO.N,+5V*%
X167775000Y-104925000D03*
%TO.N,GND*%
X168775000Y-107475000D03*
X165500000Y-108525000D03*
X159200000Y-113225000D03*
X159000000Y-114775000D03*
X164875000Y-118725000D03*
D15*
%TO.N,/mcu/RXCAN*%
X172125005Y-119425009D03*
%TO.N,/mcu/TXCAN*%
X171226429Y-119421580D03*
D16*
%TO.N,GND*%
X169450000Y-109950000D03*
D15*
%TO.N,+5V*%
X169425010Y-119050003D03*
D16*
X170725000Y-109950000D03*
%TO.N,GND*%
X179025000Y-117900000D03*
X184000000Y-116375000D03*
X178200000Y-113825000D03*
X178375000Y-107875000D03*
%TD*%
%TA.AperFunction,Conductor*%
%TO.N,GND*%
G36*
X160110941Y-101177991D02*
G01*
X160157434Y-101231647D01*
X160167538Y-101301921D01*
X160151939Y-101346989D01*
X160090476Y-101453446D01*
X160031462Y-101635073D01*
X160011500Y-101825000D01*
X160031462Y-102014927D01*
X160090476Y-102196554D01*
X160185963Y-102361942D01*
X160190381Y-102366849D01*
X160190382Y-102366850D01*
X160294109Y-102482051D01*
X160313749Y-102503863D01*
X160319091Y-102507744D01*
X160319093Y-102507746D01*
X160462908Y-102612233D01*
X160468250Y-102616114D01*
X160474278Y-102618798D01*
X160474280Y-102618799D01*
X160619228Y-102683334D01*
X160642713Y-102693790D01*
X160707947Y-102707656D01*
X160823056Y-102732124D01*
X160823061Y-102732124D01*
X160829513Y-102733496D01*
X161020487Y-102733496D01*
X161026939Y-102732124D01*
X161026944Y-102732124D01*
X161142053Y-102707656D01*
X161207287Y-102693790D01*
X161230772Y-102683334D01*
X161375720Y-102618799D01*
X161375722Y-102618798D01*
X161381750Y-102616114D01*
X161387092Y-102612233D01*
X161530907Y-102507746D01*
X161530909Y-102507744D01*
X161536251Y-102503863D01*
X161555891Y-102482051D01*
X161659618Y-102366850D01*
X161659619Y-102366849D01*
X161664037Y-102361942D01*
X161759524Y-102196554D01*
X161818538Y-102014927D01*
X161838500Y-101825000D01*
X161818538Y-101635073D01*
X161759524Y-101453446D01*
X161698061Y-101346989D01*
X161681323Y-101277994D01*
X161704543Y-101210902D01*
X161760351Y-101167015D01*
X161807180Y-101157989D01*
X176996315Y-101157989D01*
X177054023Y-101171981D01*
X183920148Y-104709532D01*
X183971543Y-104758513D01*
X183988299Y-104827504D01*
X183965095Y-104894601D01*
X183909299Y-104938503D01*
X183864640Y-104947521D01*
X183693970Y-104950500D01*
X183457454Y-104954628D01*
X183457449Y-104954628D01*
X183454603Y-104954678D01*
X183451770Y-104954986D01*
X183451766Y-104954986D01*
X183198924Y-104982454D01*
X183030279Y-105000775D01*
X182611879Y-105085139D01*
X182609151Y-105085952D01*
X182609140Y-105085955D01*
X182324369Y-105170849D01*
X182202848Y-105207076D01*
X182200187Y-105208140D01*
X182200185Y-105208141D01*
X181809211Y-105364520D01*
X181806551Y-105365584D01*
X181630077Y-105455502D01*
X181428794Y-105558060D01*
X181428789Y-105558063D01*
X181426251Y-105559356D01*
X181330832Y-105619445D01*
X181067500Y-105785274D01*
X181067494Y-105785278D01*
X181065079Y-105786799D01*
X180726007Y-106046039D01*
X180411825Y-106334943D01*
X180125121Y-106651134D01*
X180123397Y-106653421D01*
X180123396Y-106653423D01*
X180103477Y-106679857D01*
X179868255Y-106992008D01*
X179866756Y-106994426D01*
X179866753Y-106994430D01*
X179843179Y-107032451D01*
X179643339Y-107354759D01*
X179642051Y-107357330D01*
X179642051Y-107357331D01*
X179606296Y-107428731D01*
X179452226Y-107736402D01*
X179451182Y-107739066D01*
X179451178Y-107739075D01*
X179358349Y-107975950D01*
X179296490Y-108133796D01*
X179292356Y-108148024D01*
X179178268Y-108540717D01*
X179177410Y-108543669D01*
X179095969Y-108962647D01*
X179052836Y-109387283D01*
X179048367Y-109814080D01*
X179048596Y-109816925D01*
X179048596Y-109816928D01*
X179082367Y-110236672D01*
X179082368Y-110236682D01*
X179082597Y-110239525D01*
X179155246Y-110660117D01*
X179167631Y-110706339D01*
X179261899Y-111058148D01*
X179265716Y-111072394D01*
X179413096Y-111472962D01*
X179414318Y-111475535D01*
X179414319Y-111475538D01*
X179594945Y-111855936D01*
X179596174Y-111858524D01*
X179718509Y-112065382D01*
X179795851Y-112196159D01*
X179813443Y-112225906D01*
X179815105Y-112228210D01*
X179815106Y-112228212D01*
X180061445Y-112569770D01*
X180061449Y-112569775D01*
X180063115Y-112572085D01*
X180343134Y-112894210D01*
X180651196Y-113189631D01*
X180653414Y-113191401D01*
X180653419Y-113191406D01*
X180809200Y-113315764D01*
X180984765Y-113455915D01*
X181341095Y-113690872D01*
X181717254Y-113892566D01*
X182110144Y-114059338D01*
X182112853Y-114060208D01*
X182112859Y-114060210D01*
X182513812Y-114188942D01*
X182513818Y-114188944D01*
X182516532Y-114189815D01*
X182519305Y-114190435D01*
X182519313Y-114190437D01*
X182930290Y-114282301D01*
X182933073Y-114282923D01*
X183356339Y-114337896D01*
X183782844Y-114354280D01*
X183785706Y-114354130D01*
X183785707Y-114354130D01*
X184206224Y-114332092D01*
X184206231Y-114332091D01*
X184209080Y-114331942D01*
X184211903Y-114331535D01*
X184211905Y-114331535D01*
X184628714Y-114271472D01*
X184628721Y-114271471D01*
X184631536Y-114271065D01*
X185046737Y-114172151D01*
X185049435Y-114171243D01*
X185049442Y-114171241D01*
X185448552Y-114036925D01*
X185448558Y-114036923D01*
X185451264Y-114036012D01*
X185841787Y-113863771D01*
X185947566Y-113805137D01*
X186212587Y-113658233D01*
X186215093Y-113656844D01*
X186217461Y-113655235D01*
X186217466Y-113655232D01*
X186565723Y-113418557D01*
X186565725Y-113418555D01*
X186568108Y-113416936D01*
X186832416Y-113199831D01*
X186895707Y-113147843D01*
X186895711Y-113147840D01*
X186897926Y-113146020D01*
X186899963Y-113144011D01*
X186899971Y-113144004D01*
X187131259Y-112915922D01*
X187201833Y-112846327D01*
X187431758Y-112574248D01*
X187475482Y-112522508D01*
X187475487Y-112522502D01*
X187477328Y-112520323D01*
X187722142Y-112170692D01*
X187934260Y-111800312D01*
X187953377Y-111758558D01*
X188110748Y-111414829D01*
X188111937Y-111412232D01*
X188112882Y-111409547D01*
X188112887Y-111409536D01*
X188233896Y-111065913D01*
X188253711Y-111009645D01*
X188292305Y-110857124D01*
X188357710Y-110598645D01*
X188357711Y-110598641D01*
X188358413Y-110595866D01*
X188369332Y-110526930D01*
X188414851Y-110239528D01*
X188425182Y-110174301D01*
X188438105Y-109979735D01*
X188453353Y-109750170D01*
X188453353Y-109750159D01*
X188453469Y-109748419D01*
X188454501Y-109649895D01*
X188435139Y-109223514D01*
X188428494Y-109175000D01*
X188391587Y-108905579D01*
X188377213Y-108800643D01*
X188376574Y-108797874D01*
X188376573Y-108797870D01*
X188281843Y-108387551D01*
X188281842Y-108387549D01*
X188281199Y-108384762D01*
X188268914Y-108347395D01*
X188180103Y-108077277D01*
X188147888Y-107979294D01*
X188095787Y-107858895D01*
X187979517Y-107590209D01*
X187979513Y-107590200D01*
X187978378Y-107587578D01*
X187954638Y-107544036D01*
X187775432Y-107215349D01*
X187775428Y-107215342D01*
X187774062Y-107212837D01*
X187638871Y-107010891D01*
X187538216Y-106860533D01*
X187538208Y-106860522D01*
X187536624Y-106858156D01*
X187517356Y-106834362D01*
X187490030Y-106768835D01*
X187502470Y-106698937D01*
X187550724Y-106646860D01*
X187619474Y-106629138D01*
X187672984Y-106643060D01*
X188200301Y-106914743D01*
X188636765Y-107139617D01*
X188644113Y-107143403D01*
X188770548Y-107208545D01*
X188821943Y-107257526D01*
X188838840Y-107320553D01*
X188838840Y-119411996D01*
X188818838Y-119480117D01*
X188765182Y-119526610D01*
X188712840Y-119537996D01*
X173017742Y-119537996D01*
X172949621Y-119517994D01*
X172903128Y-119464338D01*
X172893431Y-119424901D01*
X172892505Y-119425009D01*
X172872768Y-119255716D01*
X172872767Y-119255713D01*
X172871920Y-119248446D01*
X172868229Y-119238276D01*
X172813764Y-119088230D01*
X172813764Y-119088229D01*
X172811268Y-119081354D01*
X172801151Y-119065922D01*
X172717816Y-118938815D01*
X172717815Y-118938814D01*
X172713804Y-118932696D01*
X172584756Y-118810448D01*
X172431045Y-118721165D01*
X172260918Y-118669639D01*
X172083500Y-118658632D01*
X172076285Y-118659872D01*
X172076282Y-118659872D01*
X171928263Y-118685307D01*
X171908308Y-118688736D01*
X171901573Y-118691602D01*
X171901572Y-118691602D01*
X171751480Y-118755466D01*
X171744740Y-118758334D01*
X171738839Y-118762677D01*
X171736754Y-118763866D01*
X171667672Y-118780243D01*
X171611039Y-118763373D01*
X171532469Y-118717736D01*
X171362342Y-118666210D01*
X171184924Y-118655203D01*
X171177709Y-118656443D01*
X171177706Y-118656443D01*
X171016948Y-118684067D01*
X171009732Y-118685307D01*
X171002997Y-118688173D01*
X171002996Y-118688173D01*
X170878458Y-118741164D01*
X170846164Y-118754905D01*
X170840276Y-118759238D01*
X170840271Y-118759241D01*
X170708895Y-118855924D01*
X170702995Y-118860266D01*
X170698251Y-118865849D01*
X170698252Y-118865849D01*
X170592643Y-118990158D01*
X170592640Y-118990162D01*
X170587904Y-118995737D01*
X170507065Y-119154051D01*
X170505325Y-119161160D01*
X170505324Y-119161164D01*
X170471581Y-119299062D01*
X170464814Y-119326716D01*
X170464757Y-119334035D01*
X170464756Y-119334039D01*
X170464136Y-119412986D01*
X170443599Y-119480948D01*
X170389580Y-119527017D01*
X170338140Y-119537996D01*
X170237725Y-119537996D01*
X170169604Y-119517994D01*
X170123111Y-119464338D01*
X170113007Y-119394064D01*
X170119976Y-119367150D01*
X170169059Y-119238276D01*
X170179280Y-119161164D01*
X170191903Y-119065922D01*
X170191903Y-119065920D01*
X170192415Y-119062058D01*
X170192510Y-119050003D01*
X170192057Y-119046114D01*
X170172773Y-118880710D01*
X170172772Y-118880707D01*
X170171925Y-118873440D01*
X170130473Y-118759241D01*
X170113769Y-118713224D01*
X170113769Y-118713223D01*
X170111273Y-118706348D01*
X170101606Y-118691602D01*
X170017821Y-118563809D01*
X170017820Y-118563808D01*
X170013809Y-118557690D01*
X169884761Y-118435442D01*
X169731050Y-118346159D01*
X169560923Y-118294633D01*
X169383505Y-118283626D01*
X169376290Y-118284866D01*
X169376287Y-118284866D01*
X169215529Y-118312490D01*
X169208313Y-118313730D01*
X169201578Y-118316596D01*
X169201577Y-118316596D01*
X169161859Y-118333496D01*
X169044745Y-118383328D01*
X169038857Y-118387661D01*
X169038852Y-118387664D01*
X168973930Y-118435442D01*
X168901576Y-118488689D01*
X168896832Y-118494272D01*
X168896833Y-118494272D01*
X168791224Y-118618581D01*
X168791221Y-118618585D01*
X168786485Y-118624160D01*
X168705646Y-118782474D01*
X168703906Y-118789583D01*
X168703905Y-118789587D01*
X168667389Y-118938815D01*
X168663395Y-118955139D01*
X168661999Y-119132893D01*
X168701533Y-119306200D01*
X168704758Y-119312770D01*
X168704759Y-119312771D01*
X168726212Y-119356465D01*
X168738280Y-119426428D01*
X168710607Y-119491810D01*
X168651979Y-119531851D01*
X168613109Y-119537996D01*
X146584000Y-119537996D01*
X146515879Y-119517994D01*
X146469386Y-119464338D01*
X146458000Y-119411996D01*
X146458000Y-117425000D01*
X157636500Y-117425000D01*
X157656462Y-117614927D01*
X157715476Y-117796554D01*
X157810963Y-117961942D01*
X157938749Y-118103863D01*
X157944091Y-118107744D01*
X157944093Y-118107746D01*
X158087908Y-118212233D01*
X158093250Y-118216114D01*
X158099278Y-118218798D01*
X158099280Y-118218799D01*
X158244884Y-118283626D01*
X158267713Y-118293790D01*
X158355689Y-118312490D01*
X158448056Y-118332124D01*
X158448061Y-118332124D01*
X158454513Y-118333496D01*
X158645487Y-118333496D01*
X158651939Y-118332124D01*
X158651944Y-118332124D01*
X158744311Y-118312490D01*
X158832287Y-118293790D01*
X158855116Y-118283626D01*
X159000720Y-118218799D01*
X159000722Y-118218798D01*
X159006750Y-118216114D01*
X159012092Y-118212233D01*
X159155907Y-118107746D01*
X159155909Y-118107744D01*
X159161251Y-118103863D01*
X159289037Y-117961942D01*
X159384524Y-117796554D01*
X159443538Y-117614927D01*
X159463500Y-117425000D01*
X159443538Y-117235073D01*
X159418305Y-117157412D01*
X159386566Y-117059731D01*
X159384524Y-117053446D01*
X159366200Y-117021707D01*
X159299653Y-116906446D01*
X159289037Y-116888058D01*
X159161251Y-116746137D01*
X159155909Y-116742256D01*
X159155907Y-116742254D01*
X159012092Y-116637767D01*
X159012091Y-116637766D01*
X159006750Y-116633886D01*
X159000722Y-116631202D01*
X159000720Y-116631201D01*
X158838318Y-116558895D01*
X158838317Y-116558895D01*
X158832287Y-116556210D01*
X158738887Y-116536357D01*
X158651944Y-116517876D01*
X158651939Y-116517876D01*
X158645487Y-116516504D01*
X158454513Y-116516504D01*
X158448061Y-116517876D01*
X158448056Y-116517876D01*
X158361113Y-116536357D01*
X158267713Y-116556210D01*
X158261683Y-116558895D01*
X158261682Y-116558895D01*
X158099280Y-116631201D01*
X158099278Y-116631202D01*
X158093250Y-116633886D01*
X158087909Y-116637766D01*
X158087908Y-116637767D01*
X157944093Y-116742254D01*
X157944091Y-116742256D01*
X157938749Y-116746137D01*
X157810963Y-116888058D01*
X157800347Y-116906446D01*
X157733801Y-117021707D01*
X157715476Y-117053446D01*
X157713434Y-117059731D01*
X157681696Y-117157412D01*
X157656462Y-117235073D01*
X157636500Y-117425000D01*
X146458000Y-117425000D01*
X146458000Y-116482890D01*
X164436989Y-116482890D01*
X164476523Y-116656197D01*
X164554865Y-116815761D01*
X164559513Y-116821410D01*
X164559514Y-116821411D01*
X164625417Y-116901500D01*
X164667814Y-116953023D01*
X164751631Y-117016759D01*
X164803486Y-117056191D01*
X164803489Y-117056193D01*
X164809311Y-117060620D01*
X164815992Y-117063587D01*
X164815996Y-117063590D01*
X164965078Y-117129809D01*
X164965080Y-117129810D01*
X164971765Y-117132779D01*
X165146462Y-117165630D01*
X165153770Y-117165292D01*
X165153773Y-117165292D01*
X165316716Y-117157751D01*
X165316720Y-117157750D01*
X165324031Y-117157412D01*
X165405490Y-117134131D01*
X165487905Y-117110577D01*
X165487908Y-117110576D01*
X165494947Y-117108564D01*
X165580557Y-117060620D01*
X165643653Y-117025285D01*
X165643656Y-117025283D01*
X165650041Y-117021707D01*
X165780994Y-116901500D01*
X165880781Y-116754392D01*
X165944049Y-116588273D01*
X165948481Y-116554838D01*
X165966893Y-116415919D01*
X165966893Y-116415917D01*
X165967405Y-116412055D01*
X165967500Y-116400000D01*
X165946915Y-116223437D01*
X165886263Y-116056345D01*
X165832379Y-115974157D01*
X165792811Y-115913806D01*
X165792810Y-115913805D01*
X165788799Y-115907687D01*
X165659751Y-115785439D01*
X165506040Y-115696156D01*
X165335913Y-115644630D01*
X165158495Y-115633623D01*
X165151280Y-115634863D01*
X165151277Y-115634863D01*
X164990519Y-115662487D01*
X164983303Y-115663727D01*
X164819735Y-115733325D01*
X164813847Y-115737658D01*
X164813842Y-115737661D01*
X164748920Y-115785439D01*
X164676566Y-115838686D01*
X164671822Y-115844269D01*
X164671823Y-115844269D01*
X164566214Y-115968578D01*
X164566211Y-115968582D01*
X164561475Y-115974157D01*
X164480636Y-116132471D01*
X164478896Y-116139580D01*
X164478895Y-116139584D01*
X164440125Y-116298024D01*
X164438385Y-116305136D01*
X164436989Y-116482890D01*
X146458000Y-116482890D01*
X146458000Y-107323907D01*
X146478002Y-107255786D01*
X146526279Y-107211906D01*
X146983062Y-106976497D01*
X147002905Y-106966271D01*
X147217003Y-106855933D01*
X147633251Y-106641415D01*
X147702966Y-106627988D01*
X147768874Y-106654384D01*
X147810048Y-106712222D01*
X147813416Y-106783138D01*
X147791601Y-106829243D01*
X147668947Y-106992011D01*
X147667448Y-106994429D01*
X147667445Y-106994433D01*
X147651735Y-107019771D01*
X147444031Y-107354762D01*
X147252918Y-107736405D01*
X147251874Y-107739069D01*
X147251870Y-107739078D01*
X147170356Y-107947080D01*
X147097182Y-108133799D01*
X147096385Y-108136543D01*
X147096384Y-108136546D01*
X146978961Y-108540717D01*
X146978102Y-108543672D01*
X146896661Y-108962650D01*
X146853528Y-109387286D01*
X146849059Y-109814083D01*
X146849288Y-109816928D01*
X146849288Y-109816931D01*
X146878268Y-110177119D01*
X146883289Y-110239528D01*
X146955938Y-110660120D01*
X146997734Y-110816105D01*
X147065670Y-111069641D01*
X147066408Y-111072397D01*
X147213788Y-111472965D01*
X147215010Y-111475538D01*
X147215011Y-111475541D01*
X147369225Y-111800315D01*
X147396866Y-111858527D01*
X147519201Y-112065385D01*
X147612687Y-112223460D01*
X147614135Y-112225909D01*
X147615796Y-112228212D01*
X147615798Y-112228215D01*
X147828049Y-112522508D01*
X147863807Y-112572088D01*
X148143826Y-112894213D01*
X148451888Y-113189634D01*
X148454106Y-113191404D01*
X148454111Y-113191409D01*
X148738659Y-113418560D01*
X148785457Y-113455918D01*
X149141787Y-113690875D01*
X149517946Y-113892569D01*
X149910836Y-114059341D01*
X149913543Y-114060210D01*
X149913551Y-114060213D01*
X150314504Y-114188945D01*
X150314510Y-114188947D01*
X150317224Y-114189818D01*
X150319997Y-114190438D01*
X150320005Y-114190440D01*
X150682536Y-114271475D01*
X150733765Y-114282926D01*
X151157031Y-114337899D01*
X151583536Y-114354283D01*
X151586398Y-114354133D01*
X151586399Y-114354133D01*
X152006916Y-114332095D01*
X152006923Y-114332094D01*
X152009772Y-114331945D01*
X152012595Y-114331538D01*
X152012597Y-114331538D01*
X152429406Y-114271475D01*
X152429413Y-114271474D01*
X152432228Y-114271068D01*
X152847429Y-114172154D01*
X152850127Y-114171246D01*
X152850134Y-114171244D01*
X153249244Y-114036928D01*
X153249252Y-114036925D01*
X153251956Y-114036015D01*
X153642479Y-113863774D01*
X154015785Y-113656847D01*
X154018147Y-113655242D01*
X154018158Y-113655235D01*
X154366415Y-113418560D01*
X154366419Y-113418557D01*
X154368800Y-113416939D01*
X154380062Y-113407688D01*
X154696399Y-113147846D01*
X154696403Y-113147843D01*
X154698618Y-113146023D01*
X154700655Y-113144014D01*
X154700663Y-113144007D01*
X154864042Y-112982893D01*
X173536996Y-112982893D01*
X173576530Y-113156200D01*
X173579755Y-113162770D01*
X173579756Y-113162771D01*
X173592944Y-113189631D01*
X173654872Y-113315764D01*
X173767821Y-113453026D01*
X173854285Y-113518775D01*
X173903493Y-113556194D01*
X173903496Y-113556196D01*
X173909318Y-113560623D01*
X173915999Y-113563590D01*
X173916003Y-113563593D01*
X174065085Y-113629812D01*
X174065087Y-113629813D01*
X174071772Y-113632782D01*
X174115411Y-113640988D01*
X174140664Y-113645737D01*
X174203915Y-113677984D01*
X174239691Y-113739308D01*
X174239755Y-113790603D01*
X174241036Y-113790763D01*
X174240131Y-113798025D01*
X174238391Y-113805137D01*
X174238334Y-113812455D01*
X174238333Y-113812459D01*
X174237930Y-113863774D01*
X174236995Y-113982891D01*
X174276529Y-114156198D01*
X174279754Y-114162768D01*
X174279755Y-114162769D01*
X174293341Y-114190440D01*
X174354871Y-114315762D01*
X174359519Y-114321411D01*
X174359520Y-114321412D01*
X174425423Y-114401501D01*
X174467820Y-114453024D01*
X174551637Y-114516760D01*
X174603492Y-114556192D01*
X174603495Y-114556194D01*
X174609317Y-114560621D01*
X174615998Y-114563588D01*
X174616002Y-114563591D01*
X174765084Y-114629810D01*
X174765086Y-114629811D01*
X174771771Y-114632780D01*
X174946468Y-114665631D01*
X174953776Y-114665293D01*
X174953779Y-114665293D01*
X175116722Y-114657752D01*
X175116726Y-114657751D01*
X175124037Y-114657413D01*
X175205496Y-114634132D01*
X175287911Y-114610578D01*
X175287914Y-114610577D01*
X175294953Y-114608565D01*
X175388472Y-114556192D01*
X175443659Y-114525286D01*
X175443662Y-114525284D01*
X175450047Y-114521708D01*
X175581000Y-114401501D01*
X175680787Y-114254393D01*
X175744055Y-114088274D01*
X175750861Y-114036928D01*
X175766899Y-113915920D01*
X175766899Y-113915918D01*
X175767411Y-113912056D01*
X175767506Y-113900001D01*
X175767053Y-113896112D01*
X175747769Y-113730708D01*
X175747768Y-113730705D01*
X175746921Y-113723438D01*
X175722750Y-113656847D01*
X175688765Y-113563222D01*
X175688765Y-113563221D01*
X175686269Y-113556346D01*
X175621450Y-113457479D01*
X175592817Y-113413807D01*
X175592816Y-113413806D01*
X175588805Y-113407688D01*
X175459757Y-113285440D01*
X175306046Y-113196157D01*
X175299049Y-113194038D01*
X175299038Y-113194033D01*
X175142870Y-113146735D01*
X175083472Y-113107846D01*
X175054528Y-113043017D01*
X175054485Y-113009590D01*
X175058024Y-112982893D01*
X175067412Y-112912058D01*
X175067507Y-112900003D01*
X175066832Y-112894210D01*
X175047770Y-112730710D01*
X175047769Y-112730707D01*
X175046922Y-112723440D01*
X174992768Y-112574248D01*
X174988766Y-112563224D01*
X174988766Y-112563223D01*
X174986270Y-112556348D01*
X174932386Y-112474160D01*
X174892818Y-112413809D01*
X174892817Y-112413808D01*
X174888806Y-112407690D01*
X174759758Y-112285442D01*
X174606047Y-112196159D01*
X174435920Y-112144633D01*
X174258502Y-112133626D01*
X174251287Y-112134866D01*
X174251284Y-112134866D01*
X174090526Y-112162490D01*
X174083310Y-112163730D01*
X173919742Y-112233328D01*
X173913854Y-112237661D01*
X173913849Y-112237664D01*
X173848927Y-112285442D01*
X173776573Y-112338689D01*
X173771829Y-112344272D01*
X173771830Y-112344272D01*
X173666221Y-112468581D01*
X173666218Y-112468585D01*
X173661482Y-112474160D01*
X173580643Y-112632474D01*
X173578903Y-112639583D01*
X173578902Y-112639587D01*
X173540132Y-112798027D01*
X173538392Y-112805139D01*
X173538335Y-112812457D01*
X173538334Y-112812461D01*
X173537709Y-112892050D01*
X173536996Y-112982893D01*
X154864042Y-112982893D01*
X154931954Y-112915922D01*
X155002525Y-112846330D01*
X155188758Y-112625953D01*
X155276174Y-112522511D01*
X155276179Y-112522505D01*
X155278020Y-112520326D01*
X155356889Y-112407690D01*
X155521199Y-112173030D01*
X155521201Y-112173027D01*
X155522834Y-112170695D01*
X155734952Y-111800315D01*
X155742365Y-111784125D01*
X155911440Y-111414832D01*
X155911441Y-111414829D01*
X155912629Y-111412235D01*
X155913574Y-111409550D01*
X155913579Y-111409539D01*
X156011004Y-111132884D01*
X163411997Y-111132884D01*
X163451531Y-111306191D01*
X163529873Y-111465755D01*
X163534521Y-111471404D01*
X163534522Y-111471405D01*
X163600425Y-111551494D01*
X163642822Y-111603017D01*
X163726639Y-111666753D01*
X163778494Y-111706185D01*
X163778497Y-111706187D01*
X163784319Y-111710614D01*
X163791000Y-111713581D01*
X163791004Y-111713584D01*
X163940086Y-111779803D01*
X163940088Y-111779804D01*
X163946773Y-111782773D01*
X164121470Y-111815624D01*
X164128778Y-111815286D01*
X164128781Y-111815286D01*
X164291724Y-111807745D01*
X164291728Y-111807744D01*
X164299039Y-111807406D01*
X164323850Y-111800315D01*
X164462913Y-111760571D01*
X164462916Y-111760570D01*
X164469955Y-111758558D01*
X164563474Y-111706185D01*
X164618661Y-111675279D01*
X164618664Y-111675277D01*
X164625049Y-111671701D01*
X164756002Y-111551494D01*
X164855789Y-111404386D01*
X164919057Y-111238267D01*
X164941042Y-111072397D01*
X164941901Y-111065913D01*
X164941901Y-111065911D01*
X164942413Y-111062049D01*
X164942508Y-111049994D01*
X164938119Y-111012345D01*
X164922771Y-110880701D01*
X164922770Y-110880698D01*
X164921923Y-110873431D01*
X164901115Y-110816105D01*
X164863767Y-110713215D01*
X164863767Y-110713214D01*
X164861271Y-110706339D01*
X164849576Y-110688500D01*
X164767819Y-110563800D01*
X164767818Y-110563799D01*
X164763807Y-110557681D01*
X164634759Y-110435433D01*
X164481048Y-110346150D01*
X164310921Y-110294624D01*
X164133503Y-110283617D01*
X164126288Y-110284857D01*
X164126285Y-110284857D01*
X163965527Y-110312481D01*
X163958311Y-110313721D01*
X163951576Y-110316587D01*
X163951575Y-110316587D01*
X163939902Y-110321554D01*
X163794743Y-110383319D01*
X163788855Y-110387652D01*
X163788850Y-110387655D01*
X163657474Y-110484338D01*
X163651574Y-110488680D01*
X163646830Y-110494263D01*
X163646831Y-110494263D01*
X163541222Y-110618572D01*
X163541219Y-110618576D01*
X163536483Y-110624151D01*
X163455644Y-110782465D01*
X163453904Y-110789574D01*
X163453903Y-110789578D01*
X163415133Y-110948018D01*
X163413393Y-110955130D01*
X163413336Y-110962448D01*
X163413335Y-110962452D01*
X163412690Y-111044657D01*
X163411997Y-111132884D01*
X156011004Y-111132884D01*
X156032305Y-111072397D01*
X156054403Y-111009648D01*
X156092650Y-110858496D01*
X156158402Y-110598648D01*
X156158403Y-110598644D01*
X156159105Y-110595869D01*
X156165154Y-110557681D01*
X156215257Y-110241340D01*
X156225874Y-110174304D01*
X156244124Y-109899539D01*
X156254045Y-109750173D01*
X156254045Y-109750162D01*
X156254161Y-109748422D01*
X156255193Y-109649898D01*
X156235831Y-109223517D01*
X156235444Y-109220687D01*
X156229186Y-109175000D01*
X156676500Y-109175000D01*
X156676500Y-110175000D01*
X156681727Y-110248079D01*
X156692162Y-110283617D01*
X156709901Y-110344030D01*
X156722904Y-110388316D01*
X156738602Y-110412742D01*
X156797051Y-110503691D01*
X156797053Y-110503694D01*
X156801923Y-110511271D01*
X156808733Y-110517172D01*
X156905569Y-110601082D01*
X156905572Y-110601084D01*
X156912381Y-110606984D01*
X156920579Y-110610728D01*
X157034936Y-110662953D01*
X157045330Y-110667700D01*
X157054245Y-110668982D01*
X157054246Y-110668982D01*
X157185552Y-110687861D01*
X157185559Y-110687862D01*
X157190000Y-110688500D01*
X158190000Y-110688500D01*
X158263079Y-110683273D01*
X158341942Y-110660117D01*
X158394670Y-110644635D01*
X158394672Y-110644634D01*
X158403316Y-110642096D01*
X158434588Y-110621999D01*
X158444297Y-110615759D01*
X158512418Y-110595757D01*
X158554062Y-110604458D01*
X158554446Y-110603275D01*
X158688769Y-110646919D01*
X158702867Y-110647322D01*
X158706000Y-110640950D01*
X158706000Y-108716948D01*
X158704010Y-108710170D01*
X159214000Y-108710170D01*
X159214000Y-110632691D01*
X159217973Y-110646222D01*
X159226188Y-110647403D01*
X159320390Y-110621101D01*
X159331823Y-110616667D01*
X159497296Y-110533080D01*
X159507648Y-110526511D01*
X159516085Y-110519919D01*
X159582079Y-110493739D01*
X159655129Y-110509217D01*
X159824246Y-110603734D01*
X160012366Y-110664857D01*
X160208775Y-110688278D01*
X160214910Y-110687806D01*
X160214912Y-110687806D01*
X160399850Y-110673576D01*
X160399854Y-110673575D01*
X160405992Y-110673103D01*
X160596507Y-110619910D01*
X160773060Y-110530726D01*
X160786560Y-110520179D01*
X160852551Y-110494002D01*
X160925600Y-110509481D01*
X161094246Y-110603734D01*
X161282366Y-110664857D01*
X161478775Y-110688278D01*
X161484910Y-110687806D01*
X161484912Y-110687806D01*
X161669850Y-110673576D01*
X161669854Y-110673575D01*
X161675992Y-110673103D01*
X161866507Y-110619910D01*
X162043060Y-110530726D01*
X162056559Y-110520180D01*
X162194073Y-110412742D01*
X162198929Y-110408948D01*
X162217309Y-110387655D01*
X162324147Y-110263882D01*
X162324148Y-110263880D01*
X162328176Y-110259214D01*
X162425878Y-110087228D01*
X162471528Y-109950000D01*
X169811500Y-109950000D01*
X169812190Y-109956565D01*
X169827389Y-110101170D01*
X169831462Y-110139927D01*
X169833502Y-110146205D01*
X169833502Y-110146206D01*
X169842631Y-110174301D01*
X169890476Y-110321554D01*
X169893779Y-110327276D01*
X169893780Y-110327277D01*
X169906798Y-110349824D01*
X169985963Y-110486942D01*
X169990381Y-110491849D01*
X169990382Y-110491850D01*
X170091123Y-110603734D01*
X170113749Y-110628863D01*
X170119091Y-110632744D01*
X170119093Y-110632746D01*
X170220386Y-110706339D01*
X170268250Y-110741114D01*
X170274278Y-110743798D01*
X170274280Y-110743799D01*
X170436682Y-110816105D01*
X170442713Y-110818790D01*
X170536113Y-110838643D01*
X170623056Y-110857124D01*
X170623061Y-110857124D01*
X170629513Y-110858496D01*
X170820487Y-110858496D01*
X170826939Y-110857124D01*
X170826944Y-110857124D01*
X170913887Y-110838643D01*
X171007287Y-110818790D01*
X171013318Y-110816105D01*
X171175720Y-110743799D01*
X171175722Y-110743798D01*
X171181750Y-110741114D01*
X171229614Y-110706339D01*
X171330907Y-110632746D01*
X171330909Y-110632744D01*
X171336251Y-110628863D01*
X171358877Y-110603734D01*
X171459618Y-110491850D01*
X171459619Y-110491849D01*
X171464037Y-110486942D01*
X171543202Y-110349824D01*
X171556220Y-110327277D01*
X171556221Y-110327276D01*
X171559524Y-110321554D01*
X171607369Y-110174301D01*
X171616498Y-110146206D01*
X171616498Y-110146205D01*
X171618538Y-110139927D01*
X171622612Y-110101170D01*
X171637810Y-109956565D01*
X171638500Y-109950000D01*
X171628826Y-109857956D01*
X171619228Y-109766637D01*
X171619228Y-109766636D01*
X171618538Y-109760073D01*
X171614753Y-109748422D01*
X171561566Y-109584731D01*
X171559524Y-109578446D01*
X171464037Y-109413058D01*
X171448755Y-109396085D01*
X171340673Y-109276048D01*
X171340672Y-109276047D01*
X171336251Y-109271137D01*
X171330909Y-109267256D01*
X171330907Y-109267254D01*
X171187092Y-109162767D01*
X171187091Y-109162766D01*
X171181750Y-109158886D01*
X171175722Y-109156202D01*
X171175720Y-109156201D01*
X171013318Y-109083895D01*
X171013317Y-109083895D01*
X171007287Y-109081210D01*
X170909827Y-109060494D01*
X170826944Y-109042876D01*
X170826939Y-109042876D01*
X170820487Y-109041504D01*
X170629513Y-109041504D01*
X170623061Y-109042876D01*
X170623056Y-109042876D01*
X170540173Y-109060494D01*
X170442713Y-109081210D01*
X170436683Y-109083895D01*
X170436682Y-109083895D01*
X170274280Y-109156201D01*
X170274278Y-109156202D01*
X170268250Y-109158886D01*
X170262909Y-109162766D01*
X170262908Y-109162767D01*
X170119093Y-109267254D01*
X170119091Y-109267256D01*
X170113749Y-109271137D01*
X170109328Y-109276047D01*
X170109327Y-109276048D01*
X170001246Y-109396085D01*
X169985963Y-109413058D01*
X169890476Y-109578446D01*
X169888434Y-109584731D01*
X169835248Y-109748422D01*
X169831462Y-109760073D01*
X169830772Y-109766636D01*
X169830772Y-109766637D01*
X169821174Y-109857956D01*
X169811500Y-109950000D01*
X162471528Y-109950000D01*
X162488314Y-109899539D01*
X162513105Y-109703299D01*
X162513500Y-109675000D01*
X162494198Y-109478143D01*
X162437027Y-109288785D01*
X162344166Y-109114138D01*
X162238135Y-108984131D01*
X162223045Y-108965628D01*
X162223042Y-108965625D01*
X162219150Y-108960853D01*
X162212056Y-108954984D01*
X162071491Y-108838698D01*
X162071486Y-108838695D01*
X162066742Y-108834770D01*
X162061323Y-108831840D01*
X162061320Y-108831838D01*
X161898165Y-108743621D01*
X161898161Y-108743619D01*
X161892747Y-108740692D01*
X161886867Y-108738872D01*
X161886865Y-108738871D01*
X161837054Y-108723452D01*
X161804385Y-108713339D01*
X167674839Y-108713339D01*
X167675529Y-108719904D01*
X167693467Y-108890569D01*
X167694801Y-108903266D01*
X167696841Y-108909544D01*
X167696841Y-108909545D01*
X167713422Y-108960577D01*
X167753815Y-109084893D01*
X167757118Y-109090615D01*
X167757119Y-109090616D01*
X167779624Y-109129596D01*
X167849302Y-109250281D01*
X167853720Y-109255188D01*
X167853721Y-109255189D01*
X167972666Y-109387291D01*
X167977088Y-109392202D01*
X167982430Y-109396083D01*
X167982432Y-109396085D01*
X168118561Y-109494988D01*
X168131589Y-109504453D01*
X168137617Y-109507137D01*
X168137619Y-109507138D01*
X168300021Y-109579444D01*
X168306052Y-109582129D01*
X168399452Y-109601982D01*
X168486395Y-109620463D01*
X168486400Y-109620463D01*
X168492852Y-109621835D01*
X168683826Y-109621835D01*
X168690278Y-109620463D01*
X168690283Y-109620463D01*
X168777226Y-109601982D01*
X168870626Y-109582129D01*
X168876657Y-109579444D01*
X169039059Y-109507138D01*
X169039061Y-109507137D01*
X169045089Y-109504453D01*
X169058117Y-109494988D01*
X169194246Y-109396085D01*
X169194248Y-109396083D01*
X169199590Y-109392202D01*
X169204012Y-109387291D01*
X169322957Y-109255189D01*
X169322958Y-109255188D01*
X169327376Y-109250281D01*
X169397054Y-109129596D01*
X169419559Y-109090616D01*
X169419560Y-109090615D01*
X169422863Y-109084893D01*
X169463256Y-108960577D01*
X169479837Y-108909545D01*
X169479837Y-108909544D01*
X169481877Y-108903266D01*
X169483212Y-108890569D01*
X169501149Y-108719904D01*
X169501839Y-108713339D01*
X169501001Y-108705365D01*
X169482567Y-108529976D01*
X169482567Y-108529975D01*
X169481877Y-108523412D01*
X169422863Y-108341785D01*
X169417728Y-108332890D01*
X170911989Y-108332890D01*
X170951523Y-108506197D01*
X170954748Y-108512767D01*
X170954749Y-108512768D01*
X170973520Y-108551000D01*
X171029865Y-108665761D01*
X171034513Y-108671410D01*
X171034514Y-108671411D01*
X171100417Y-108751500D01*
X171142814Y-108803023D01*
X171211003Y-108854875D01*
X171278486Y-108906191D01*
X171278489Y-108906193D01*
X171284311Y-108910620D01*
X171290992Y-108913587D01*
X171290996Y-108913590D01*
X171440078Y-108979809D01*
X171440080Y-108979810D01*
X171446765Y-108982779D01*
X171621462Y-109015630D01*
X171628770Y-109015292D01*
X171628773Y-109015292D01*
X171791716Y-109007751D01*
X171791720Y-109007750D01*
X171799031Y-109007412D01*
X171880490Y-108984131D01*
X171962905Y-108960577D01*
X171962908Y-108960576D01*
X171969947Y-108958564D01*
X172063466Y-108906191D01*
X172118653Y-108875285D01*
X172118656Y-108875283D01*
X172125041Y-108871707D01*
X172255994Y-108751500D01*
X172355781Y-108604392D01*
X172419049Y-108438273D01*
X172426142Y-108384762D01*
X172441893Y-108265919D01*
X172441893Y-108265917D01*
X172442405Y-108262055D01*
X172442500Y-108250000D01*
X172441550Y-108241850D01*
X172422763Y-108080707D01*
X172422762Y-108080704D01*
X172421915Y-108073437D01*
X172409556Y-108039387D01*
X172363759Y-107913221D01*
X172363759Y-107913220D01*
X172361263Y-107906345D01*
X172346196Y-107883363D01*
X172267811Y-107763806D01*
X172267810Y-107763805D01*
X172263799Y-107757687D01*
X172134751Y-107635439D01*
X171981040Y-107546156D01*
X171810913Y-107494630D01*
X171633495Y-107483623D01*
X171626280Y-107484863D01*
X171626277Y-107484863D01*
X171465519Y-107512487D01*
X171458303Y-107513727D01*
X171451568Y-107516593D01*
X171451567Y-107516593D01*
X171407586Y-107535307D01*
X171294735Y-107583325D01*
X171288847Y-107587658D01*
X171288842Y-107587661D01*
X171204429Y-107649783D01*
X171151566Y-107688686D01*
X171135832Y-107707206D01*
X171041214Y-107818578D01*
X171041211Y-107818582D01*
X171036475Y-107824157D01*
X170955636Y-107982471D01*
X170953896Y-107989580D01*
X170953895Y-107989584D01*
X170915376Y-108146998D01*
X170913385Y-108155136D01*
X170913328Y-108162454D01*
X170913327Y-108162458D01*
X170912733Y-108238098D01*
X170911989Y-108332890D01*
X169417728Y-108332890D01*
X169376831Y-108262055D01*
X169327376Y-108176397D01*
X169312528Y-108159906D01*
X169204012Y-108039387D01*
X169204011Y-108039386D01*
X169199590Y-108034476D01*
X169194248Y-108030595D01*
X169194246Y-108030593D01*
X169050431Y-107926106D01*
X169050430Y-107926105D01*
X169045089Y-107922225D01*
X169039061Y-107919541D01*
X169039059Y-107919540D01*
X168876657Y-107847234D01*
X168876656Y-107847234D01*
X168870626Y-107844549D01*
X168774690Y-107824157D01*
X168690283Y-107806215D01*
X168690278Y-107806215D01*
X168683826Y-107804843D01*
X168492852Y-107804843D01*
X168486400Y-107806215D01*
X168486395Y-107806215D01*
X168401988Y-107824157D01*
X168306052Y-107844549D01*
X168300022Y-107847234D01*
X168300021Y-107847234D01*
X168137619Y-107919540D01*
X168137617Y-107919541D01*
X168131589Y-107922225D01*
X168126248Y-107926105D01*
X168126247Y-107926106D01*
X167982432Y-108030593D01*
X167982430Y-108030595D01*
X167977088Y-108034476D01*
X167972667Y-108039386D01*
X167972666Y-108039387D01*
X167864151Y-108159906D01*
X167849302Y-108176397D01*
X167799847Y-108262055D01*
X167758951Y-108332890D01*
X167753815Y-108341785D01*
X167694801Y-108523412D01*
X167694111Y-108529975D01*
X167694111Y-108529976D01*
X167675677Y-108705365D01*
X167674839Y-108713339D01*
X161804385Y-108713339D01*
X161703792Y-108682200D01*
X161697674Y-108681557D01*
X161697669Y-108681556D01*
X161513205Y-108662169D01*
X161513203Y-108662169D01*
X161507076Y-108661525D01*
X161428993Y-108668631D01*
X161316228Y-108678893D01*
X161316225Y-108678894D01*
X161310089Y-108679452D01*
X161304183Y-108681190D01*
X161304179Y-108681191D01*
X161196866Y-108712775D01*
X161120336Y-108735299D01*
X160945045Y-108826939D01*
X160940243Y-108830800D01*
X160935085Y-108834175D01*
X160933685Y-108832036D01*
X160878389Y-108854875D01*
X160808534Y-108842200D01*
X160798940Y-108836588D01*
X160796742Y-108834770D01*
X160791320Y-108831838D01*
X160791318Y-108831837D01*
X160628165Y-108743621D01*
X160628161Y-108743619D01*
X160622747Y-108740692D01*
X160616867Y-108738872D01*
X160616865Y-108738871D01*
X160567054Y-108723452D01*
X160433792Y-108682200D01*
X160427674Y-108681557D01*
X160427669Y-108681556D01*
X160243205Y-108662169D01*
X160243203Y-108662169D01*
X160237076Y-108661525D01*
X160158993Y-108668631D01*
X160046228Y-108678893D01*
X160046225Y-108678894D01*
X160040089Y-108679452D01*
X160034183Y-108681190D01*
X160034179Y-108681191D01*
X159926866Y-108712775D01*
X159850336Y-108735299D01*
X159675045Y-108826939D01*
X159670244Y-108830799D01*
X159665085Y-108834175D01*
X159663769Y-108832164D01*
X159607965Y-108855205D01*
X159538111Y-108842521D01*
X159524177Y-108834369D01*
X159521043Y-108832255D01*
X159357969Y-108744082D01*
X159346670Y-108739332D01*
X159231307Y-108703620D01*
X159217205Y-108703414D01*
X159214000Y-108710170D01*
X158704010Y-108710170D01*
X158702027Y-108703417D01*
X158694232Y-108702297D01*
X158586443Y-108734021D01*
X158569346Y-108740928D01*
X158568900Y-108739825D01*
X158505481Y-108752426D01*
X158464396Y-108741544D01*
X158424780Y-108723452D01*
X158371124Y-108676959D01*
X158351122Y-108608838D01*
X158371124Y-108540717D01*
X158420641Y-108498219D01*
X158419997Y-108497103D01*
X158425720Y-108493799D01*
X158431750Y-108491114D01*
X158481383Y-108455054D01*
X158580907Y-108382746D01*
X158580909Y-108382744D01*
X158586251Y-108378863D01*
X158694938Y-108258154D01*
X158709618Y-108241850D01*
X158709619Y-108241849D01*
X158714037Y-108236942D01*
X158790345Y-108104773D01*
X158806220Y-108077277D01*
X158806221Y-108077276D01*
X158809524Y-108071554D01*
X158860969Y-107913221D01*
X158866498Y-107896206D01*
X158866498Y-107896205D01*
X158868538Y-107889927D01*
X158872271Y-107854415D01*
X158887810Y-107706565D01*
X158888500Y-107700000D01*
X158887311Y-107688686D01*
X158869228Y-107516637D01*
X158869228Y-107516636D01*
X158868538Y-107510073D01*
X158864210Y-107496751D01*
X158818909Y-107357331D01*
X158809524Y-107328446D01*
X158796828Y-107306455D01*
X158741403Y-107210458D01*
X158714037Y-107163058D01*
X158592449Y-107028020D01*
X158590673Y-107026048D01*
X158590672Y-107026047D01*
X158586251Y-107021137D01*
X158580909Y-107017256D01*
X158580907Y-107017254D01*
X158437092Y-106912767D01*
X158437091Y-106912766D01*
X158431750Y-106908886D01*
X158425722Y-106906202D01*
X158425720Y-106906201D01*
X158263318Y-106833895D01*
X158263317Y-106833895D01*
X158257287Y-106831210D01*
X158163887Y-106811357D01*
X158076944Y-106792876D01*
X158076939Y-106792876D01*
X158070487Y-106791504D01*
X157879513Y-106791504D01*
X157873061Y-106792876D01*
X157873056Y-106792876D01*
X157786113Y-106811357D01*
X157692713Y-106831210D01*
X157686683Y-106833895D01*
X157686682Y-106833895D01*
X157524280Y-106906201D01*
X157524278Y-106906202D01*
X157518250Y-106908886D01*
X157512909Y-106912766D01*
X157512908Y-106912767D01*
X157369093Y-107017254D01*
X157369091Y-107017256D01*
X157363749Y-107021137D01*
X157359328Y-107026047D01*
X157359327Y-107026048D01*
X157357552Y-107028020D01*
X157235963Y-107163058D01*
X157208597Y-107210458D01*
X157153173Y-107306455D01*
X157140476Y-107328446D01*
X157131091Y-107357331D01*
X157085791Y-107496751D01*
X157081462Y-107510073D01*
X157080772Y-107516636D01*
X157080772Y-107516637D01*
X157062689Y-107688686D01*
X157061500Y-107700000D01*
X157062190Y-107706565D01*
X157077730Y-107854415D01*
X157081462Y-107889927D01*
X157083502Y-107896205D01*
X157083502Y-107896206D01*
X157089031Y-107913221D01*
X157140476Y-108071554D01*
X157143779Y-108077276D01*
X157143780Y-108077277D01*
X157159655Y-108104773D01*
X157235963Y-108236942D01*
X157240381Y-108241849D01*
X157240382Y-108241850D01*
X157255062Y-108258154D01*
X157363749Y-108378863D01*
X157369091Y-108382744D01*
X157369093Y-108382746D01*
X157439039Y-108433564D01*
X157482393Y-108489786D01*
X157488468Y-108560522D01*
X157455337Y-108623314D01*
X157393517Y-108658225D01*
X157364978Y-108661500D01*
X157190000Y-108661500D01*
X157116921Y-108666727D01*
X157063884Y-108682300D01*
X156985330Y-108705365D01*
X156985328Y-108705366D01*
X156976684Y-108707904D01*
X156958012Y-108719904D01*
X156861309Y-108782051D01*
X156861306Y-108782053D01*
X156853729Y-108786923D01*
X156847828Y-108793733D01*
X156763918Y-108890569D01*
X156763916Y-108890572D01*
X156758016Y-108897381D01*
X156754272Y-108905579D01*
X156707612Y-109007751D01*
X156697300Y-109030330D01*
X156696018Y-109039245D01*
X156696018Y-109039246D01*
X156677139Y-109170552D01*
X156677138Y-109170559D01*
X156676500Y-109175000D01*
X156229186Y-109175000D01*
X156199713Y-108959848D01*
X156177905Y-108800646D01*
X156164064Y-108740692D01*
X156082535Y-108387554D01*
X156082534Y-108387551D01*
X156081891Y-108384765D01*
X156069827Y-108348070D01*
X155980794Y-108077277D01*
X155948580Y-107979297D01*
X155922721Y-107919540D01*
X155780209Y-107590212D01*
X155780205Y-107590203D01*
X155779070Y-107587581D01*
X155777698Y-107585065D01*
X155576124Y-107215352D01*
X155576120Y-107215345D01*
X155574754Y-107212840D01*
X155439561Y-107010891D01*
X155338908Y-106860536D01*
X155338900Y-106860525D01*
X155337316Y-106858159D01*
X155094161Y-106557887D01*
X159986985Y-106557887D01*
X160026519Y-106731194D01*
X160104861Y-106890758D01*
X160109509Y-106896407D01*
X160109510Y-106896408D01*
X160175413Y-106976497D01*
X160217810Y-107028020D01*
X160301627Y-107091756D01*
X160353482Y-107131188D01*
X160353485Y-107131190D01*
X160359307Y-107135617D01*
X160365988Y-107138584D01*
X160365992Y-107138587D01*
X160515074Y-107204806D01*
X160515076Y-107204807D01*
X160521761Y-107207776D01*
X160696458Y-107240627D01*
X160703766Y-107240289D01*
X160703769Y-107240289D01*
X160866712Y-107232748D01*
X160866716Y-107232747D01*
X160874027Y-107232409D01*
X160881067Y-107230397D01*
X161037901Y-107185574D01*
X161037904Y-107185573D01*
X161044943Y-107183561D01*
X161116650Y-107143403D01*
X161193649Y-107100282D01*
X161193652Y-107100280D01*
X161200037Y-107096704D01*
X161314092Y-106992008D01*
X161325602Y-106981443D01*
X161325603Y-106981442D01*
X161330990Y-106976497D01*
X161430777Y-106829389D01*
X161494045Y-106663270D01*
X161502443Y-106599913D01*
X161516889Y-106490916D01*
X161516889Y-106490914D01*
X161517401Y-106487052D01*
X161517496Y-106474997D01*
X161516811Y-106469120D01*
X161497759Y-106305704D01*
X161497758Y-106305701D01*
X161496911Y-106298434D01*
X161494277Y-106291176D01*
X161438755Y-106138218D01*
X161438755Y-106138217D01*
X161436259Y-106131342D01*
X161382375Y-106049154D01*
X161342807Y-105988803D01*
X161342806Y-105988802D01*
X161338795Y-105982684D01*
X161209747Y-105860436D01*
X161056036Y-105771153D01*
X160885909Y-105719627D01*
X160708491Y-105708620D01*
X160701276Y-105709860D01*
X160701273Y-105709860D01*
X160540515Y-105737484D01*
X160533299Y-105738724D01*
X160369731Y-105808322D01*
X160363843Y-105812655D01*
X160363838Y-105812658D01*
X160232462Y-105909341D01*
X160226562Y-105913683D01*
X160221818Y-105919266D01*
X160221819Y-105919266D01*
X160116210Y-106043575D01*
X160116207Y-106043579D01*
X160111471Y-106049154D01*
X160030632Y-106207468D01*
X160028892Y-106214577D01*
X160028891Y-106214581D01*
X159990248Y-106372504D01*
X159988381Y-106380133D01*
X159988324Y-106387451D01*
X159988323Y-106387455D01*
X159987688Y-106468310D01*
X159986985Y-106557887D01*
X155094161Y-106557887D01*
X155068709Y-106526457D01*
X155062911Y-106520494D01*
X154773135Y-106222511D01*
X154773131Y-106222507D01*
X154771145Y-106220465D01*
X154768987Y-106218615D01*
X154768977Y-106218606D01*
X154449246Y-105944564D01*
X154449241Y-105944560D01*
X154447072Y-105942701D01*
X154444741Y-105941044D01*
X154444734Y-105941039D01*
X154253952Y-105805458D01*
X154099159Y-105695452D01*
X153860034Y-105556278D01*
X153732742Y-105482192D01*
X153732737Y-105482189D01*
X153730269Y-105480753D01*
X153481007Y-105364520D01*
X153346035Y-105301581D01*
X153346025Y-105301577D01*
X153343439Y-105300371D01*
X153266044Y-105272507D01*
X152944542Y-105156759D01*
X152944533Y-105156756D01*
X152941852Y-105155791D01*
X152655457Y-105081191D01*
X152531583Y-105048924D01*
X152531577Y-105048923D01*
X152528814Y-105048203D01*
X152107724Y-104978492D01*
X152104881Y-104978283D01*
X152104879Y-104978283D01*
X151684896Y-104947441D01*
X151682050Y-104947232D01*
X151591089Y-104948820D01*
X151433909Y-104951563D01*
X151365449Y-104932753D01*
X151318027Y-104879916D01*
X151306699Y-104809830D01*
X151335060Y-104744744D01*
X151373987Y-104713582D01*
X151773109Y-104507890D01*
X161511989Y-104507890D01*
X161551523Y-104681197D01*
X161629865Y-104840761D01*
X161634513Y-104846410D01*
X161634514Y-104846411D01*
X161699183Y-104925000D01*
X161742814Y-104978023D01*
X161826631Y-105041759D01*
X161878486Y-105081191D01*
X161878489Y-105081193D01*
X161884311Y-105085620D01*
X161890992Y-105088587D01*
X161890996Y-105088590D01*
X162040078Y-105154809D01*
X162040080Y-105154810D01*
X162046765Y-105157779D01*
X162221462Y-105190630D01*
X162228770Y-105190292D01*
X162228773Y-105190292D01*
X162391716Y-105182751D01*
X162391720Y-105182750D01*
X162399031Y-105182412D01*
X162406071Y-105180400D01*
X162562905Y-105135577D01*
X162562908Y-105135576D01*
X162569947Y-105133564D01*
X162650254Y-105088590D01*
X162718653Y-105050285D01*
X162718656Y-105050283D01*
X162725041Y-105046707D01*
X162823566Y-104956267D01*
X162850606Y-104931446D01*
X162850607Y-104931445D01*
X162855994Y-104926500D01*
X162857011Y-104925000D01*
X166861500Y-104925000D01*
X166862190Y-104931565D01*
X166878098Y-105082916D01*
X166881462Y-105114927D01*
X166883502Y-105121205D01*
X166883502Y-105121206D01*
X166889197Y-105138733D01*
X166940476Y-105296554D01*
X166943779Y-105302276D01*
X166943780Y-105302277D01*
X166977689Y-105361008D01*
X167035963Y-105461942D01*
X167040381Y-105466849D01*
X167040382Y-105466850D01*
X167067839Y-105497344D01*
X167163749Y-105603863D01*
X167169091Y-105607744D01*
X167169093Y-105607746D01*
X167286542Y-105693077D01*
X167318250Y-105716114D01*
X167324278Y-105718798D01*
X167324280Y-105718799D01*
X167477011Y-105786799D01*
X167492713Y-105793790D01*
X167581479Y-105812658D01*
X167673056Y-105832124D01*
X167673061Y-105832124D01*
X167679513Y-105833496D01*
X167870487Y-105833496D01*
X167876939Y-105832124D01*
X167876944Y-105832124D01*
X167968521Y-105812658D01*
X168057287Y-105793790D01*
X168072989Y-105786799D01*
X168225720Y-105718799D01*
X168225722Y-105718798D01*
X168231750Y-105716114D01*
X168263458Y-105693077D01*
X168380907Y-105607746D01*
X168380909Y-105607744D01*
X168386251Y-105603863D01*
X168482161Y-105497344D01*
X168509618Y-105466850D01*
X168509619Y-105466849D01*
X168514037Y-105461942D01*
X168572311Y-105361008D01*
X168606220Y-105302277D01*
X168606221Y-105302276D01*
X168609524Y-105296554D01*
X168660803Y-105138733D01*
X168666498Y-105121206D01*
X168666498Y-105121205D01*
X168668538Y-105114927D01*
X168671903Y-105082916D01*
X168687810Y-104931565D01*
X168688500Y-104925000D01*
X168683762Y-104879916D01*
X168669228Y-104741637D01*
X168669228Y-104741636D01*
X168668538Y-104735073D01*
X168642379Y-104654562D01*
X168624526Y-104599617D01*
X168609524Y-104553446D01*
X168587345Y-104515030D01*
X168537625Y-104428914D01*
X168514037Y-104388058D01*
X168386251Y-104246137D01*
X168380909Y-104242256D01*
X168380907Y-104242254D01*
X168237092Y-104137767D01*
X168237091Y-104137766D01*
X168231750Y-104133886D01*
X168225722Y-104131202D01*
X168225720Y-104131201D01*
X168063318Y-104058895D01*
X168063317Y-104058895D01*
X168057287Y-104056210D01*
X167963887Y-104036357D01*
X167876944Y-104017876D01*
X167876939Y-104017876D01*
X167870487Y-104016504D01*
X167679513Y-104016504D01*
X167673061Y-104017876D01*
X167673056Y-104017876D01*
X167586113Y-104036357D01*
X167492713Y-104056210D01*
X167486683Y-104058895D01*
X167486682Y-104058895D01*
X167324280Y-104131201D01*
X167324278Y-104131202D01*
X167318250Y-104133886D01*
X167312909Y-104137766D01*
X167312908Y-104137767D01*
X167169093Y-104242254D01*
X167169091Y-104242256D01*
X167163749Y-104246137D01*
X167035963Y-104388058D01*
X167012375Y-104428914D01*
X166962656Y-104515030D01*
X166940476Y-104553446D01*
X166925474Y-104599617D01*
X166907622Y-104654562D01*
X166881462Y-104735073D01*
X166880772Y-104741636D01*
X166880772Y-104741637D01*
X166866238Y-104879916D01*
X166861500Y-104925000D01*
X162857011Y-104925000D01*
X162955781Y-104779392D01*
X163019049Y-104613273D01*
X163026146Y-104559731D01*
X163041893Y-104440919D01*
X163041893Y-104440917D01*
X163042405Y-104437055D01*
X163042500Y-104425000D01*
X163041362Y-104415236D01*
X163022763Y-104255707D01*
X163022762Y-104255704D01*
X163021915Y-104248437D01*
X163005244Y-104202508D01*
X162963759Y-104088221D01*
X162963759Y-104088220D01*
X162961263Y-104081345D01*
X162946545Y-104058895D01*
X162867811Y-103938806D01*
X162867810Y-103938805D01*
X162863799Y-103932687D01*
X162734751Y-103810439D01*
X162581040Y-103721156D01*
X162410913Y-103669630D01*
X162233495Y-103658623D01*
X162226280Y-103659863D01*
X162226277Y-103659863D01*
X162065519Y-103687487D01*
X162058303Y-103688727D01*
X161894735Y-103758325D01*
X161888847Y-103762658D01*
X161888842Y-103762661D01*
X161757466Y-103859344D01*
X161751566Y-103863686D01*
X161746822Y-103869269D01*
X161746823Y-103869269D01*
X161641214Y-103993578D01*
X161641211Y-103993582D01*
X161636475Y-103999157D01*
X161555636Y-104157471D01*
X161553896Y-104164580D01*
X161553895Y-104164584D01*
X161515125Y-104323024D01*
X161513385Y-104330136D01*
X161513328Y-104337454D01*
X161513327Y-104337458D01*
X161512930Y-104388058D01*
X161511989Y-104507890D01*
X151773109Y-104507890D01*
X153859004Y-103432899D01*
X171661993Y-103432899D01*
X171701527Y-103606206D01*
X171779869Y-103765770D01*
X171892818Y-103903032D01*
X171976631Y-103966765D01*
X172028490Y-104006200D01*
X172028493Y-104006202D01*
X172034315Y-104010629D01*
X172040996Y-104013596D01*
X172041000Y-104013599D01*
X172190082Y-104079818D01*
X172190084Y-104079819D01*
X172196769Y-104082788D01*
X172371466Y-104115639D01*
X172378774Y-104115301D01*
X172378777Y-104115301D01*
X172541720Y-104107760D01*
X172541724Y-104107759D01*
X172549035Y-104107421D01*
X172630494Y-104084140D01*
X172712909Y-104060586D01*
X172712912Y-104060585D01*
X172719951Y-104058573D01*
X172792621Y-104017876D01*
X172868657Y-103975294D01*
X172868660Y-103975292D01*
X172875045Y-103971716D01*
X172880433Y-103966770D01*
X172880440Y-103966765D01*
X172950295Y-103902642D01*
X173014004Y-103871312D01*
X173084539Y-103879399D01*
X173139504Y-103924337D01*
X173161500Y-103995465D01*
X173161500Y-104575000D01*
X173166727Y-104648079D01*
X173178381Y-104687768D01*
X173205284Y-104779392D01*
X173207904Y-104788316D01*
X173212775Y-104795895D01*
X173282051Y-104903691D01*
X173282053Y-104903694D01*
X173286923Y-104911271D01*
X173293733Y-104917172D01*
X173390569Y-105001082D01*
X173390572Y-105001084D01*
X173397381Y-105006984D01*
X173405579Y-105010728D01*
X173463599Y-105037225D01*
X173530330Y-105067700D01*
X173536639Y-105068607D01*
X173595244Y-105106269D01*
X173624738Y-105170849D01*
X173614636Y-105241123D01*
X173582601Y-105283949D01*
X173547492Y-105314415D01*
X173544109Y-105318541D01*
X173544105Y-105318545D01*
X173505536Y-105365584D01*
X173401304Y-105492705D01*
X173398666Y-105497339D01*
X173398663Y-105497344D01*
X173363364Y-105559356D01*
X173287245Y-105693077D01*
X173208578Y-105909802D01*
X173207629Y-105915051D01*
X173207628Y-105915054D01*
X173183942Y-106046039D01*
X173167551Y-106136683D01*
X173167500Y-106142023D01*
X173165628Y-106337066D01*
X173165338Y-106367233D01*
X173202002Y-106594861D01*
X173276494Y-106813056D01*
X173279044Y-106817743D01*
X173279045Y-106817745D01*
X173327173Y-106906201D01*
X173386685Y-107015580D01*
X173529424Y-107196644D01*
X173547377Y-107212837D01*
X173696659Y-107347489D01*
X173696665Y-107347494D01*
X173700629Y-107351069D01*
X173705142Y-107353928D01*
X173705144Y-107353929D01*
X173823242Y-107428731D01*
X173870087Y-107482079D01*
X173880654Y-107552285D01*
X173851587Y-107617058D01*
X173821186Y-107642894D01*
X173726196Y-107700535D01*
X173726189Y-107700540D01*
X173721631Y-107703306D01*
X173717601Y-107706803D01*
X173558862Y-107844549D01*
X173547492Y-107854415D01*
X173544109Y-107858541D01*
X173544105Y-107858545D01*
X173488709Y-107926106D01*
X173401304Y-108032705D01*
X173398665Y-108037341D01*
X173398663Y-108037344D01*
X173327444Y-108162458D01*
X173287245Y-108233077D01*
X173208578Y-108449802D01*
X173207629Y-108455051D01*
X173207628Y-108455054D01*
X173169351Y-108666727D01*
X173167551Y-108676683D01*
X173166904Y-108744082D01*
X173165433Y-108897381D01*
X173165338Y-108907233D01*
X173202002Y-109134861D01*
X173276494Y-109353056D01*
X173279044Y-109357743D01*
X173279045Y-109357745D01*
X173331574Y-109454289D01*
X173386685Y-109555580D01*
X173529424Y-109736644D01*
X173542482Y-109748422D01*
X173696659Y-109887489D01*
X173696665Y-109887494D01*
X173700629Y-109891069D01*
X173705142Y-109893928D01*
X173705144Y-109893929D01*
X173783305Y-109943435D01*
X173895406Y-110014439D01*
X174108184Y-110103228D01*
X174113387Y-110104425D01*
X174113392Y-110104426D01*
X174327678Y-110153701D01*
X174327683Y-110153702D01*
X174332881Y-110154897D01*
X174338209Y-110155200D01*
X174338212Y-110155200D01*
X174494293Y-110164063D01*
X174563071Y-110167968D01*
X174568378Y-110167368D01*
X174568380Y-110167368D01*
X174689272Y-110153701D01*
X174792173Y-110142068D01*
X174797288Y-110140587D01*
X174797292Y-110140586D01*
X174922161Y-110104426D01*
X175013635Y-110077937D01*
X175221125Y-109977409D01*
X175225463Y-109974309D01*
X175225468Y-109974306D01*
X175404370Y-109846459D01*
X175408711Y-109843357D01*
X175571030Y-109679617D01*
X175684435Y-109517958D01*
X175692953Y-109505816D01*
X175748449Y-109461536D01*
X175819075Y-109454289D01*
X175882407Y-109486375D01*
X175906781Y-109517958D01*
X175924550Y-109550617D01*
X175930402Y-109559491D01*
X176066486Y-109732113D01*
X176073750Y-109739875D01*
X176236967Y-109887094D01*
X176245444Y-109893528D01*
X176431122Y-110011136D01*
X176440567Y-110016053D01*
X176643406Y-110100694D01*
X176653545Y-110103950D01*
X176793345Y-110136096D01*
X176807422Y-110135257D01*
X176811000Y-110125999D01*
X176811000Y-109072548D01*
X177319000Y-109072548D01*
X177319000Y-110124941D01*
X177323151Y-110139079D01*
X177333798Y-110140774D01*
X177337192Y-110140096D01*
X177548333Y-110078954D01*
X177558259Y-110075143D01*
X177756065Y-109979307D01*
X177765212Y-109973876D01*
X177944041Y-109846083D01*
X177952149Y-109839182D01*
X178106893Y-109683082D01*
X178113706Y-109674933D01*
X178239940Y-109494988D01*
X178245295Y-109485787D01*
X178339399Y-109287156D01*
X178343123Y-109277197D01*
X178400968Y-109070718D01*
X178399430Y-109062351D01*
X178387137Y-109059000D01*
X177337115Y-109059000D01*
X177321876Y-109063475D01*
X177320671Y-109064865D01*
X177319000Y-109072548D01*
X176811000Y-109072548D01*
X176811000Y-108677000D01*
X176831002Y-108608879D01*
X176884658Y-108562386D01*
X176937000Y-108551000D01*
X178384079Y-108551000D01*
X178397610Y-108547027D01*
X178398876Y-108538218D01*
X178351954Y-108357433D01*
X178348419Y-108347395D01*
X178258147Y-108146998D01*
X178252967Y-108137692D01*
X178130218Y-107955366D01*
X178123557Y-107947080D01*
X177971830Y-107788030D01*
X177963873Y-107780990D01*
X177787524Y-107649783D01*
X177774981Y-107642005D01*
X177727628Y-107589107D01*
X177716391Y-107519005D01*
X177744838Y-107453957D01*
X177768122Y-107432409D01*
X177948711Y-107303357D01*
X178082124Y-107168776D01*
X178107277Y-107143403D01*
X178107278Y-107143402D01*
X178111030Y-107139617D01*
X178190700Y-107026048D01*
X178240375Y-106955236D01*
X178240376Y-106955234D01*
X178243439Y-106950868D01*
X178342153Y-106742508D01*
X178404349Y-106520494D01*
X178406294Y-106501837D01*
X178411147Y-106455263D01*
X178428249Y-106291176D01*
X178428500Y-106265000D01*
X178424721Y-106220465D01*
X178409458Y-106040576D01*
X178409457Y-106040572D01*
X178409007Y-106035265D01*
X178378900Y-105919266D01*
X178352426Y-105817269D01*
X178351084Y-105812098D01*
X178341628Y-105791105D01*
X178258578Y-105606743D01*
X178258577Y-105606741D01*
X178256388Y-105601882D01*
X178127627Y-105410626D01*
X177968482Y-105243799D01*
X177783504Y-105106171D01*
X177778743Y-105103751D01*
X177775425Y-105101693D01*
X177728071Y-105048796D01*
X177716832Y-104978695D01*
X177745277Y-104913645D01*
X177768564Y-104892093D01*
X177785604Y-104879916D01*
X177948711Y-104763357D01*
X178111030Y-104599617D01*
X178147434Y-104547723D01*
X178240375Y-104415236D01*
X178240376Y-104415234D01*
X178243439Y-104410868D01*
X178342153Y-104202508D01*
X178404349Y-103980494D01*
X178428249Y-103751176D01*
X178428500Y-103725000D01*
X178426752Y-103704401D01*
X178409458Y-103500576D01*
X178409457Y-103500572D01*
X178409007Y-103495265D01*
X178351084Y-103272098D01*
X178343448Y-103255145D01*
X178258578Y-103066743D01*
X178258577Y-103066741D01*
X178256388Y-103061882D01*
X178245338Y-103045468D01*
X178130607Y-102875053D01*
X178127627Y-102870626D01*
X178115293Y-102857696D01*
X178004877Y-102741951D01*
X177968482Y-102703799D01*
X177956874Y-102695162D01*
X177808639Y-102584872D01*
X177783504Y-102566171D01*
X177778753Y-102563755D01*
X177778749Y-102563753D01*
X177582740Y-102464097D01*
X177582739Y-102464097D01*
X177577982Y-102461678D01*
X177437033Y-102417912D01*
X177362895Y-102394891D01*
X177362889Y-102394890D01*
X177357792Y-102393307D01*
X177252798Y-102379391D01*
X177134515Y-102363714D01*
X177134510Y-102363714D01*
X177129230Y-102363014D01*
X177123900Y-102363214D01*
X177123899Y-102363214D01*
X177014030Y-102367339D01*
X176898831Y-102371663D01*
X176854246Y-102381018D01*
X176678411Y-102417912D01*
X176678408Y-102417913D01*
X176673184Y-102419009D01*
X176458740Y-102503697D01*
X176261631Y-102623306D01*
X176257601Y-102626803D01*
X176118052Y-102747897D01*
X176087492Y-102774415D01*
X176082339Y-102780700D01*
X176081364Y-102781365D01*
X176080390Y-102782366D01*
X176080186Y-102782168D01*
X176023681Y-102820695D01*
X175952710Y-102822628D01*
X175891961Y-102785885D01*
X175864008Y-102736309D01*
X175844634Y-102670329D01*
X175842096Y-102661684D01*
X175812810Y-102616114D01*
X175767949Y-102546309D01*
X175767947Y-102546306D01*
X175763077Y-102538729D01*
X175720384Y-102501735D01*
X175659431Y-102448918D01*
X175659428Y-102448916D01*
X175652619Y-102443016D01*
X175570175Y-102405365D01*
X175527864Y-102386042D01*
X175527863Y-102386042D01*
X175519670Y-102382300D01*
X175510755Y-102381018D01*
X175510754Y-102381018D01*
X175379448Y-102362139D01*
X175379441Y-102362138D01*
X175375000Y-102361500D01*
X173675000Y-102361500D01*
X173601921Y-102366727D01*
X173548884Y-102382300D01*
X173470330Y-102405365D01*
X173470328Y-102405366D01*
X173461684Y-102407904D01*
X173441350Y-102420972D01*
X173346309Y-102482051D01*
X173346306Y-102482053D01*
X173338729Y-102486923D01*
X173332828Y-102493733D01*
X173248918Y-102590569D01*
X173248916Y-102590572D01*
X173243016Y-102597381D01*
X173239272Y-102605579D01*
X173200214Y-102691105D01*
X173182300Y-102730330D01*
X173181018Y-102739245D01*
X173181017Y-102739249D01*
X173180629Y-102741951D01*
X173179494Y-102744436D01*
X173178478Y-102747897D01*
X173177981Y-102747751D01*
X173151139Y-102806533D01*
X173091415Y-102844919D01*
X173020418Y-102844923D01*
X172969258Y-102815498D01*
X172890071Y-102740484D01*
X172890072Y-102740484D01*
X172884755Y-102735448D01*
X172731044Y-102646165D01*
X172560917Y-102594639D01*
X172383499Y-102583632D01*
X172376284Y-102584872D01*
X172376281Y-102584872D01*
X172255777Y-102605579D01*
X172208307Y-102613736D01*
X172201572Y-102616602D01*
X172201571Y-102616602D01*
X172177597Y-102626803D01*
X172044739Y-102683334D01*
X172038851Y-102687667D01*
X172038846Y-102687670D01*
X171961711Y-102744436D01*
X171901570Y-102788695D01*
X171896826Y-102794278D01*
X171896827Y-102794278D01*
X171791218Y-102918587D01*
X171791215Y-102918591D01*
X171786479Y-102924166D01*
X171705640Y-103082480D01*
X171703900Y-103089589D01*
X171703899Y-103089593D01*
X171665129Y-103248033D01*
X171663389Y-103255145D01*
X171663332Y-103262463D01*
X171663331Y-103262467D01*
X171663215Y-103277269D01*
X171661993Y-103432899D01*
X153859004Y-103432899D01*
X156270184Y-102190269D01*
X158246041Y-101171988D01*
X158303762Y-101157989D01*
X160042820Y-101157989D01*
X160110941Y-101177991D01*
G37*
%TD.AperFunction*%
%TD*%
M02*
