%TF.GenerationSoftware,KiCad,Pcbnew,(5.99.0-8996-g10442b98df)*%
%TF.CreationDate,2021-04-19T08:50:07+01:00*%
%TF.ProjectId,CANduino,43414e64-7569-46e6-9f2e-6b696361645f,rev?*%
%TF.SameCoordinates,Original*%
%TF.FileFunction,Soldermask,Top*%
%TF.FilePolarity,Negative*%
%FSLAX46Y46*%
G04 Gerber Fmt 4.6, Leading zero omitted, Abs format (unit mm)*
G04 Created by KiCad (PCBNEW (5.99.0-8996-g10442b98df)) date 2021-04-19 08:50:07*
%MOMM*%
%LPD*%
G01*
G04 APERTURE LIST*
G04 Aperture macros list*
%AMRoundRect*
0 Rectangle with rounded corners*
0 $1 Rounding radius*
0 $2 $3 $4 $5 $6 $7 $8 $9 X,Y pos of 4 corners*
0 Add a 4 corners polygon primitive as box body*
4,1,4,$2,$3,$4,$5,$6,$7,$8,$9,$2,$3,0*
0 Add four circle primitives for the rounded corners*
1,1,$1+$1,$2,$3*
1,1,$1+$1,$4,$5*
1,1,$1+$1,$6,$7*
1,1,$1+$1,$8,$9*
0 Add four rect primitives between the rounded corners*
20,1,$1+$1,$2,$3,$4,$5,0*
20,1,$1+$1,$4,$5,$6,$7,0*
20,1,$1+$1,$6,$7,$8,$9,0*
20,1,$1+$1,$8,$9,$2,$3,0*%
G04 Aperture macros list end*
%ADD10R,1.300000X1.100000*%
%ADD11R,0.640000X0.420000*%
%ADD12RoundRect,0.237500X-0.250000X-0.237500X0.250000X-0.237500X0.250000X0.237500X-0.250000X0.237500X0*%
%ADD13O,1.700000X1.700000*%
%ADD14R,1.700000X1.700000*%
%ADD15R,4.600000X4.600000*%
%ADD16R,1.050000X0.350000*%
%ADD17R,0.350000X1.050000*%
%ADD18RoundRect,0.237500X-0.300000X-0.237500X0.300000X-0.237500X0.300000X0.237500X-0.300000X0.237500X0*%
%ADD19RoundRect,0.237500X0.237500X-0.250000X0.237500X0.250000X-0.237500X0.250000X-0.237500X-0.250000X0*%
%ADD20C,8.382000*%
%ADD21R,1.000000X1.000000*%
%ADD22O,1.000000X1.000000*%
%ADD23R,1.550000X0.700000*%
%ADD24R,1.900000X0.800000*%
%ADD25RoundRect,0.237500X0.237500X-0.300000X0.237500X0.300000X-0.237500X0.300000X-0.237500X-0.300000X0*%
%ADD26RoundRect,0.237500X0.300000X0.237500X-0.300000X0.237500X-0.300000X-0.237500X0.300000X-0.237500X0*%
%ADD27R,1.475000X0.450000*%
%ADD28R,2.200000X1.550000*%
G04 APERTURE END LIST*
D10*
%TO.C,Y1*%
X175750002Y-115149996D03*
X178050002Y-115149996D03*
X178050002Y-117049996D03*
X175750002Y-117049996D03*
%TD*%
D11*
%TO.C,Z1*%
X175000000Y-112875000D03*
X176500000Y-112875000D03*
%TD*%
D12*
%TO.C,R4*%
X176712500Y-111425000D03*
X174887500Y-111425000D03*
%TD*%
D13*
%TO.C,J1*%
X177065000Y-108805000D03*
X174525000Y-108805000D03*
X177065000Y-106265000D03*
X174525000Y-106265000D03*
X177065000Y-103725000D03*
D14*
X174525000Y-103725000D03*
%TD*%
D15*
%TO.C,H1*%
X169799991Y-114850012D03*
D16*
X166449991Y-117125012D03*
X166449991Y-116475012D03*
X166449991Y-115825012D03*
X166449991Y-115175012D03*
X166449991Y-114525012D03*
X166449991Y-113875012D03*
X166449991Y-113225012D03*
X166449991Y-112575012D03*
D17*
X167524991Y-111500012D03*
X168174991Y-111500012D03*
X168824991Y-111500012D03*
X169474991Y-111500012D03*
X170124991Y-111500012D03*
X170774991Y-111500012D03*
X171424991Y-111500012D03*
X172074991Y-111500012D03*
D16*
X173149991Y-112575012D03*
X173149991Y-113225012D03*
X173149991Y-113875012D03*
X173149991Y-114525012D03*
X173149991Y-115175012D03*
X173149991Y-115825012D03*
X173149991Y-116475012D03*
X173149991Y-117125012D03*
D17*
X172074991Y-118200012D03*
X171424991Y-118200012D03*
X170774991Y-118200012D03*
X170124991Y-118200012D03*
X169474991Y-118200012D03*
X168824991Y-118200012D03*
X168174991Y-118200012D03*
X167524991Y-118200012D03*
%TD*%
D18*
%TO.C,C11*%
X182362500Y-116250000D03*
X180637500Y-116250000D03*
%TD*%
%TO.C,C7*%
X182362500Y-117850000D03*
X180637500Y-117850000D03*
%TD*%
D19*
%TO.C,R1*%
X162025000Y-117312500D03*
X162025000Y-115487500D03*
%TD*%
D20*
%TO.C,H3*%
X183750001Y-109649895D03*
%TD*%
D21*
%TO.C,J2*%
X157690000Y-109675000D03*
D22*
X158960000Y-109675000D03*
X160230000Y-109675000D03*
X161500000Y-109675000D03*
%TD*%
D23*
%TO.C,IC4*%
X171224993Y-107204993D03*
X171224993Y-105934993D03*
X171224993Y-104664993D03*
X171224993Y-103394993D03*
X165774993Y-103394993D03*
X165774993Y-104664993D03*
X165774993Y-105934993D03*
X165774993Y-107204993D03*
%TD*%
D24*
%TO.C,U1*%
X156925007Y-115500008D03*
X156925007Y-117400008D03*
X159925007Y-116450008D03*
%TD*%
D25*
%TO.C,C2*%
X154825000Y-117312500D03*
X154825000Y-115587500D03*
%TD*%
D26*
%TO.C,C1*%
X160252500Y-119050000D03*
X158527500Y-119050000D03*
%TD*%
%TO.C,C5*%
X159237500Y-102925000D03*
X157512500Y-102925000D03*
%TD*%
D27*
%TO.C,IC1*%
X156797000Y-104600000D03*
X156797000Y-105250000D03*
X156797000Y-105900000D03*
X156797000Y-106550000D03*
X162673000Y-106550000D03*
X162673000Y-105900000D03*
X162673000Y-105250000D03*
X162673000Y-104600000D03*
%TD*%
D28*
%TO.C,D1*%
X157225000Y-112950000D03*
X161325000Y-112950000D03*
%TD*%
D12*
%TO.C,R3*%
X160862500Y-102925000D03*
X162687500Y-102925000D03*
%TD*%
D20*
%TO.C,H2*%
X151550693Y-109649898D03*
%TD*%
M02*
